<svg width="700" height="700" viewbox = "0 0 700 700"  xmlns="http://www.w3.org/2000/svg">
<!--<json>{
  "glyph": "0225,0333,0333,0333,0333,0333,0333,0331,0333,0227,",
  "x0": 108.22221663475096,
  "y0": 356.6115702479338,
  "unit": 28.223696502688867,
  "width": 700,
  "height": 700,
  "style": {
    "color0": "black",
    "fill0": "black",
    "line0": 1,
    "color1": "black",
    "fill1": "black",
    "line1": 5,
    "color2": "red",
    "fill2": "red",
    "line2": 6,
    "color3": "orange",
    "fill3": "#ff000040",
    "line3": 1,
    "color4": "yellow",
    "fill4": "yellow",
    "line4": 1,
    "color5": "green",
    "fill5": "green",
    "line5": 6,
    "color6": "blue",
    "fill6": "blue",
    "line6": 6,
    "color7": "purple",
    "fill7": "purple",
    "line7": 3
  },
  "shapes": [
    "0220:0336,0336,0336,0336,0336,0201,0337,0362,0203,0306,0334,0337,0203,0335,0335,0203,0203,0334,0334,0203,0203,0335,0335,0203,0203,0334,0334,0203,0203,0335,0335,0203,0203,0334,0334,0203,0335,0203,0336,0336,0203,0364,0304,0337,0337,0337,0337,0337,",
    "0221:0336,0314,0336,0313,0337,0237,0237,0237,0237,0337,0314,0337,0313,0336,",
    "0222:0336,0336,0362,0203,0336,0203,0334,0364,0337,0342,0335,0335,0342,0332,0342,0335,0335,0342,0335,0336,0362,0203,0337,0203,0335,0364,0335,0337,0337,0335,0335,",
    "0223:0336,0331,0342,0337,0304,0336,0336,0335,0310,0362,0203,0335,0350,0335,0337,0203,0335,0335,0203,0335,0335,0335,0336,0203,0354,0304,0334,0313,0337,0337,0304,0336,0330,0337,",
    "0224:0333,0330,0330,0335,0220,0220,0331,0335,0220,0220,0335,0220,0335,0335,0330,0220,0331,0340,0334,0330,0330,0340,0331,0340,0335,0336,0201,0334,0336,0331,0337,0342,0336,0333,0336,0330,0332,0337,0342,0336,0330,0332,0332,0332,0332,0332,0337,0337,0337,0331,0335,0330,0331,0331,0333,0336,0201,0337,0220,0336,0201,0334,0334,0332,0332,0201,0337,0220,0336,0201,0335,0337,0330,0330,0330,0330,0334,0342,0332,0332,0342,0332,0332,0342,0333,0342,0335,0330,0330,0330,0333,0350,0335,0333,0334,0342,0335,0335,0342,0334,0334,0340,0304,0331,0331,0335,0342,0333,0342,0333,0342,0334,0330,0330,0330,0330,0330,0336,0331,0332,0332,0331,0337,0336,0201,0332,0350,0335,0343,0334,0330,0334,0334,0337,0342,0330,0336,0342,0335,0335,0335,0335,0331,0334,0334,0337,0330,0335,0335,0201,0201,0334,0334,0331,0335,0343,0334,0331,0304,0331,0331,0332,0332,",
    "0225:0330,0330,0330,0330,0330,0330,0322,0224,0331,0331,0331,0331,0331,0325,0331,0331,0224,0331,0331,0331,0331,0331,0326,0331,0331,0224,0333,0333,0330,0330,0330,0330,0330,0330,0330,0330,0332,0332,",
    "0226:0335,0201,0334,0201,0201,0336,0201,0335,0337,0201,0201,0335,0201,0201,0201,0201,0201,0335,0201,0201,0335,0201,0201,0336,0201,0337,0330,0330,0334,0342,0332,0332,0332,0342,0332,0342,0335,0330,0330,0336,0333,0335,0366,0330,0330,0334,0331,0350,0334,0367,0335,0304,0333,0330,0335,0337,0342,0332,0332,0342,0333,0333,0333,0342,0333,0342,0334,0330,0330,0333,0333,0335,0330,0201,0334,0335,0334,0333,0336,0331,0332,0333,0337,0200,0330,0330,0200,0333,0333,0333,0331,0331,0333,0337,0337,0336,0336,0333,0336,0336,0330,0330,0332,0337,0337,0331,0337,0337,0200,0336,0330,0332,0336,0336,0330,0332,0337,0200,0331,0331,0200,0332,0332,0332,0336,0333,0330,0336,0332,0337,0337,0350,0335,0366,0333,0333,0334,0334,0367,0334,0330,0330,0335,0335,0330,0330,0335,0366,0333,0333,0334,0334,0367,0335,0304,0331,0332,0332,0330,0332,0336,0333,0337,0334,0342,0335,0331,0331,0331,0332,0330,0334,0337,0342,0333,0342,0335,0331,0332,0336,0331,0335,0332,0335,0350,0334,0350,0335,0343,0334,0350,0334,0343,0334,0334,0334,0330,0334,0334,0334,0334,0334,0334,0334,0334,0304,0336,0336,0330,0337,0337,0342,0330,0336,0342,0330,0336,0342,0337,0330,0336,0331,0337,0337,0337,0340,0335,0336,0331,0337,0334,0331,0336,0331,0331,0335,0201,0332,0350,0335,0343,0334,0330,0334,0334,0304,0336,0201,0336,0201,0330,0330,0201,0337,0201,0201,0201,0337,0337,0340,0332,0332,0332,0331,0336,",
    "0227:0325,0226,0330,0330,0330,0330,0330,0330,0330,0322,0226,0331,0331,0331,0331,0331,0331,0331,0331,0331,0331,0331,0331,0331,0331,0326,0226,0330,0330,0330,0330,0330,0330,",
    "0230:0335,0201,0336,0331,0335,0337,0234,0220,0234,0334,0336,0331,0337,0342,0334,0333,0330,",
    "0231:0335,0330,0334,0334,0221,0335,0331,0335,0201,0332,0334,",
    "0232:0335,0342,0336,0330,0335,0337,0234,0221,0335,0234,0335,0335,0336,0331,0337,0342,0334,0330,0333,",
    "0233:0335,0236,0333,0236,0334,0330,",
    "0234:0336,0336,0336,0336,0347,0337,0337,0337,0337,",
    "0235:0336,0366,0330,0333,0333,0336,0331,0337,0367,0335,0335,0366,0331,0333,0333,0367,0335,0335,0337,",
    "0236:0336,0201,0336,0336,0330,0341,0331,0337,0337,0331,0337,",
    "0237:0336,0366,0330,0333,0333,0336,0331,0337,0367,0335,0335,0366,0331,0333,0333,0367,0335,0335,0337,",
    "01220:0333,0200,0336,0332,0337,0220,0336,0333,0337,0331,",
    "01221:0333,0200,0336,0332,0337,0336,0336,0336,0332,0337,0337,0337,0221,0331,0336,0333,0336,0336,0333,0337,0337,0337,",
    "01222:0333,0200,0336,0332,0337,0222,0336,0333,0337,0331,",
    "01223:0333,0200,0336,0332,0337,0330,0223,0331,0336,0333,0337,",
    "01224:0333,0200,0336,0330,0332,0336,0332,0224,0333,0333,0333,0331,0331,0337,0337,",
    "01225:0333,0200,0336,0330,0332,0336,0330,0332,0337,0225,0336,0333,0330,0337,0337,0331,",
    "01226:0333,0200,0336,0330,0332,0336,0336,0336,0332,0332,0332,0332,0332,0332,0226,0332,0332,0337,0337,0337,0331,0333,0333,0337,",
    "01227:0333,0200,0336,0330,0332,0336,0336,0332,0332,0336,0336,0227,0337,0337,0337,0332,0337,0331,0333,0333,0337,",
    "01230:0333,0200,0336,0330,0332,0336,0330,0332,0337,0230,0336,0333,0330,0337,0337,0331,",
    "01231:0333,0200,0336,0330,0332,0336,0330,0332,0337,0231,0331,0336,0331,0333,0337,0337,",
    "01232:0333,0200,0336,0330,0332,0336,0330,0332,0337,0232,0336,0333,0330,0337,0337,0331,",
    "01233:0333,0200,0336,0330,0332,0336,0330,0332,0337,0233,0333,0336,0333,0330,0337,0337,0331,",
    "01234:0333,0200,0336,0330,0332,0234,0342,0335,0342,0335,0342,0335,0342,0335,0331,0333,0337,",
    "01235:0333,0200,0336,0330,0332,0336,0332,0330,0337,0235,0331,0336,0333,0331,0337,0337,",
    "01236:0333,0200,0336,0330,0332,0236,0331,0333,0337,",
    "01237:0333,0200,0336,0330,0332,0336,0331,0332,0332,0337,0337,0237,0331,0333,",
    "0240:0220,0336,0331,0333,0336,0321,0335,0342,0335,0335,0342,0335,0330,0330,0332,0332,0337,0337,",
    "01240:0333,0200,0336,0330,0332,0210,0240,0211,0333,0331,0337,",
    "0241:0220,0336,0321,0343,0332,0350,0335,0336,0342,0334,0334,0342,0335,0304,0337,0333,0337,",
    "01241:0333,0200,0336,0332,0330,0210,0241,0211,0333,0331,0337,",
    "0242:0220,0321,0336,0343,0333,0336,0350,0335,0342,0334,0334,0342,0335,0337,0304,0332,0337,",
    "01242:0333,0200,0336,0330,0332,0210,0242,0211,0333,0331,0337,",
    "0243:0220,0336,0331,0332,0336,0321,0343,0332,0350,0334,0336,0342,0335,0335,0342,0337,0334,0334,0335,0304,0332,0330,0330,0337,0337,0333,",
    "01243:0333,0200,0336,0330,0332,0210,0243,0211,0333,0331,0337,",
    "0244:0220,0336,0331,0333,0336,0321,0343,0333,0350,0336,0335,0342,0334,0334,0342,0335,0337,0304,0333,0330,0330,0337,0337,0332,",
    "01244:0333,0200,0336,0330,0332,0210,0244,0211,0333,0331,0337,",
    "0245:0210,0332,0332,0362,0335,0203,0203,0203,0203,0334,0203,0363,0332,0332,0331,0211,",
    "01245:0333,0200,0336,0330,0332,0336,0245,0337,0333,0331,0337,",
    "0246:0210,0332,0332,0335,0306,0336,0330,0335,0335,0335,0321,0362,0203,0335,0335,0203,0364,0331,0350,0335,0337,0366,0333,0333,0333,0333,0334,0334,0334,0334,0367,0335,0336,0342,0334,0334,0342,0330,0330,0330,0330,0335,0335,0335,0304,0337,0211,",
    "01246:0333,0200,0336,0330,0332,0336,0246,",
    "0247:0330,0332,0336,0332,0336,0221,0333,0333,0333,0222,0333,0333,0333,0223,0333,0333,0333,0225,0333,0331,0331,0331,0332,0332,0332,0332,0332,0332,0332,0332,0332,0332,0332,0332,0333,0333,0226,0331,0331,0331,0333,0333,0333,0333,0333,0333,0333,0333,0333,0333,0333,0333,0333,0330,0333,0330,0330,0333,0330,0331,0332,0332,0332,0332,0332,0332,0332,0332,0332,0332,0332,0332,0227,0333,0333,0333,0230,0333,0331,0331,0331,0331,0332,0332,0332,0330,0332,0332,0332,0332,0332,0332,0333,0333,0231,0333,0333,0333,0232,0331,0333,0330,0333,0333,0233,0333,0333,0333,0234,0330,0330,0332,0330,0332,0332,0337,0337,",
    "01247:0333,0200,0336,0330,0332,0220,0336,0247,0337,0331,0333,0337,"
  ]
}</json>-->    <line x1="136" y1="131" x2="137" y2="131" style="stroke:#ff0000;stroke-width:6" />
	<path d = "M137 131 L139 131 L141 128 L143 131 L144 134 L146 131 L148 128 L150 131 L151 134 L153 131 L155 128 L157 131 L158 134 L160 131 L164 131 L165 131 " stroke = "#ff0000" stroke-width = "6" fill = "none" />    <line x1="165" y1="131" x2="166" y2="131" style="stroke:#ff0000;stroke-width:6" />
	<path d = "M166 131 L167 131 L169 128 L171 131 L173 134 L174 131 L176 128 L178 131 L180 134 L181 131 L183 128 L185 131 L187 134 L188 131 L192 131 L193 131 " stroke = "#ff0000" stroke-width = "6" fill = "none" />    <line x1="165" y1="131" x2="165" y2="132" style="stroke:#ff0000;stroke-width:6" />
	<path d = "M165 132 L165 133 L168 135 L165 137 L162 139 L165 141 L168 142 L165 144 L162 146 L165 148 L168 149 L165 151 L162 153 L165 155 L165 158 L165 159 " stroke = "#ff0000" stroke-width = "6" fill = "none" />    <line x1="165" y1="159" x2="165" y2="160" style="stroke:#ff0000;stroke-width:6" />
	<path d = "M165 160 L165 162 L168 163 L165 165 L162 167 L165 169 L168 171 L165 172 L162 174 L165 176 L168 178 L165 179 L162 181 L165 183 L165 186 L165 187 " stroke = "#ff0000" stroke-width = "6" fill = "none" />    <line x1="165" y1="187" x2="164" y2="187" style="stroke:#ff0000;stroke-width:6" />
	<path d = "M164 187 L162 187 L160 190 L158 187 L157 184 L155 187 L153 190 L151 187 L150 184 L148 187 L146 190 L144 187 L143 184 L141 187 L137 187 L136 187 " stroke = "#ff0000" stroke-width = "6" fill = "none" />    <line x1="165" y1="187" x2="166" y2="187" style="stroke:#ff0000;stroke-width:6" />
	<path d = "M166 187 L167 187 L169 184 L171 187 L173 190 L174 187 L176 184 L178 187 L180 190 L181 187 L183 184 L185 187 L187 190 L188 187 L192 187 L193 187 " stroke = "#ff0000" stroke-width = "6" fill = "none" /><circle cx="165" cy = "187" r = "6" stroke = "#ff0000" stroke-width = "6" fill = "#ff0000" />
<circle cx="165" cy = "131" r = "6" stroke = "#ff0000" stroke-width = "6" fill = "#ff0000" />
<circle cx="165" cy = "159" r = "6" stroke = "#ff0000" stroke-width = "6" fill = "#ff0000" />
    <line x1="165" y1="159" x2="179" y2="159" style="stroke:#ff0000;stroke-width:6" />
    <line x1="179" y1="166" x2="179" y2="152" style="stroke:#ff0000;stroke-width:6" />
    <line x1="182" y1="163" x2="182" y2="156" style="stroke:#ff0000;stroke-width:6" />
    <line x1="136" y1="215" x2="151" y2="215" style="stroke:#ff0000;stroke-width:6" />
    <line x1="151" y1="215" x2="151" y2="215" style="stroke:#ff0000;stroke-width:6" />
	<path d = "M151 215 L153 215 L155 212 L157 215 L158 219 L160 215 L162 212 L164 215 L166 219 L167 215 L169 212 L171 215 L173 219 L174 215 L178 215 L179 215 " stroke = "#ff0000" stroke-width = "6" fill = "none" />    <line x1="179" y1="215" x2="193" y2="215" style="stroke:#ff0000;stroke-width:6" />
    <line x1="193" y1="244" x2="179" y2="244" style="stroke:#ff0000;stroke-width:6" />
    <line x1="179" y1="244" x2="178" y2="244" style="stroke:#ff0000;stroke-width:6" />
	<path d = "M178 244 L176 244 L174 247 L173 244 L171 241 L169 244 L167 247 L166 244 L164 241 L162 244 L160 247 L158 244 L157 241 L155 244 L151 244 L151 244 " stroke = "#ff0000" stroke-width = "6" fill = "none" />    <line x1="151" y1="244" x2="136" y2="244" style="stroke:#ff0000;stroke-width:6" />
    <line x1="136" y1="131" x2="108" y2="131" style="stroke:#ff0000;stroke-width:6" />
    <line x1="136" y1="187" x2="108" y2="187" style="stroke:#ff0000;stroke-width:6" />
    <line x1="136" y1="244" x2="108" y2="244" style="stroke:#ff0000;stroke-width:6" />
    <line x1="136" y1="215" x2="108" y2="215" style="stroke:#ff0000;stroke-width:6" />
    <line x1="193" y1="131" x2="193" y2="103" style="stroke:#ff0000;stroke-width:6" />
    <line x1="193" y1="131" x2="221" y2="131" style="stroke:#ff0000;stroke-width:6" />
<circle cx="193" cy = "131" r = "6" stroke = "#ff0000" stroke-width = "6" fill = "#ff0000" />
    <line x1="193" y1="187" x2="221" y2="187" style="stroke:#ff0000;stroke-width:6" />
    <line x1="193" y1="215" x2="221" y2="215" style="stroke:#ff0000;stroke-width:6" />
    <line x1="193" y1="244" x2="221" y2="244" style="stroke:#ff0000;stroke-width:6" />
    <line x1="165" y1="131" x2="165" y2="117" style="stroke:#ff0000;stroke-width:6" />
  <path d="M150.5577613887839 102.59830172373381           A14.111848251344433 14.111848251344433 0 0 1 164.66960964012833 116.71014997507825" fill = "none" stroke = "#ff0000" stroke-width = "6" />
    <line x1="151" y1="103" x2="122" y2="103" style="stroke:#ff0000;stroke-width:6" />
    <line x1="122" y1="103" x2="108" y2="103" style="stroke:#ff0000;stroke-width:6" />
    <line x1="108" y1="74" x2="136" y2="74" style="stroke:#ff0000;stroke-width:6" />
    <line x1="136" y1="74" x2="165" y2="74" style="stroke:#ff0000;stroke-width:6" />
  <path d="M164.66960964012833 74.37460522104494           A28.223696502688867 28.223696502688867 0 0 1 192.8933061428172 102.59830172373381" fill = "none" stroke = "#ff0000" stroke-width = "6" />
    <line x1="136" y1="328" x2="137" y2="328" style="stroke:#008000;stroke-width:6" />
	<path d = "M137 328 L139 328 L141 325 L143 328 L144 331 L146 328 L148 325 L150 328 L151 331 L153 328 L155 325 L157 328 L158 331 L160 328 L164 328 L165 328 " stroke = "#008000" stroke-width = "6" fill = "none" />    <line x1="165" y1="328" x2="166" y2="328" style="stroke:#008000;stroke-width:6" />
	<path d = "M166 328 L167 328 L169 325 L171 328 L173 331 L174 328 L176 325 L178 328 L180 331 L181 328 L183 325 L185 328 L187 331 L188 328 L192 328 L193 328 " stroke = "#008000" stroke-width = "6" fill = "none" />    <line x1="165" y1="328" x2="165" y2="329" style="stroke:#008000;stroke-width:6" />
	<path d = "M165 329 L165 331 L168 333 L165 335 L162 336 L165 338 L168 340 L165 342 L162 343 L165 345 L168 347 L165 349 L162 350 L165 352 L165 356 L165 357 " stroke = "#008000" stroke-width = "6" fill = "none" />    <line x1="165" y1="357" x2="165" y2="357" style="stroke:#008000;stroke-width:6" />
	<path d = "M165 357 L165 359 L168 361 L165 363 L162 365 L165 366 L168 368 L165 370 L162 372 L165 373 L168 375 L165 377 L162 379 L165 380 L165 384 L165 385 " stroke = "#008000" stroke-width = "6" fill = "none" />    <line x1="165" y1="385" x2="164" y2="385" style="stroke:#008000;stroke-width:6" />
	<path d = "M164 385 L162 385 L160 388 L158 385 L157 382 L155 385 L153 388 L151 385 L150 382 L148 385 L146 388 L144 385 L143 382 L141 385 L137 385 L136 385 " stroke = "#008000" stroke-width = "6" fill = "none" />    <line x1="165" y1="385" x2="166" y2="385" style="stroke:#008000;stroke-width:6" />
	<path d = "M166 385 L167 385 L169 382 L171 385 L173 388 L174 385 L176 382 L178 385 L180 388 L181 385 L183 382 L185 385 L187 388 L188 385 L192 385 L193 385 " stroke = "#008000" stroke-width = "6" fill = "none" /><circle cx="165" cy = "385" r = "6" stroke = "#008000" stroke-width = "6" fill = "#008000" />
<circle cx="165" cy = "328" r = "6" stroke = "#008000" stroke-width = "6" fill = "#008000" />
<circle cx="165" cy = "357" r = "6" stroke = "#008000" stroke-width = "6" fill = "#008000" />
    <line x1="165" y1="357" x2="179" y2="357" style="stroke:#008000;stroke-width:6" />
    <line x1="179" y1="364" x2="179" y2="350" style="stroke:#008000;stroke-width:6" />
    <line x1="182" y1="360" x2="182" y2="353" style="stroke:#008000;stroke-width:6" />
    <line x1="136" y1="413" x2="151" y2="413" style="stroke:#008000;stroke-width:6" />
    <line x1="151" y1="413" x2="151" y2="413" style="stroke:#008000;stroke-width:6" />
	<path d = "M151 413 L153 413 L155 410 L157 413 L158 416 L160 413 L162 410 L164 413 L166 416 L167 413 L169 410 L171 413 L173 416 L174 413 L178 413 L179 413 " stroke = "#008000" stroke-width = "6" fill = "none" />    <line x1="179" y1="413" x2="193" y2="413" style="stroke:#008000;stroke-width:6" />
    <line x1="193" y1="441" x2="179" y2="441" style="stroke:#008000;stroke-width:6" />
    <line x1="179" y1="441" x2="178" y2="441" style="stroke:#008000;stroke-width:6" />
	<path d = "M178 441 L176 441 L174 444 L173 441 L171 438 L169 441 L167 444 L166 441 L164 438 L162 441 L160 444 L158 441 L157 438 L155 441 L151 441 L151 441 " stroke = "#008000" stroke-width = "6" fill = "none" />    <line x1="151" y1="441" x2="136" y2="441" style="stroke:#008000;stroke-width:6" />
    <line x1="136" y1="328" x2="108" y2="328" style="stroke:#008000;stroke-width:6" />
    <line x1="136" y1="385" x2="108" y2="385" style="stroke:#008000;stroke-width:6" />
    <line x1="136" y1="441" x2="108" y2="441" style="stroke:#008000;stroke-width:6" />
    <line x1="136" y1="413" x2="108" y2="413" style="stroke:#008000;stroke-width:6" />
    <line x1="193" y1="328" x2="193" y2="300" style="stroke:#008000;stroke-width:6" />
    <line x1="193" y1="328" x2="221" y2="328" style="stroke:#008000;stroke-width:6" />
<circle cx="193" cy = "328" r = "6" stroke = "#008000" stroke-width = "6" fill = "#008000" />
    <line x1="193" y1="385" x2="221" y2="385" style="stroke:#008000;stroke-width:6" />
    <line x1="193" y1="413" x2="221" y2="413" style="stroke:#008000;stroke-width:6" />
    <line x1="193" y1="441" x2="221" y2="441" style="stroke:#008000;stroke-width:6" />
    <line x1="165" y1="328" x2="165" y2="314" style="stroke:#008000;stroke-width:6" />
  <path d="M150.55776138878377 300.16417724255587           A14.111848251344433 14.111848251344433 0 0 1 164.66960964012824 314.2760254939003" fill = "none" stroke = "#008000" stroke-width = "6" />
    <line x1="151" y1="300" x2="122" y2="300" style="stroke:#008000;stroke-width:6" />
    <line x1="122" y1="300" x2="108" y2="300" style="stroke:#008000;stroke-width:6" />
    <line x1="108" y1="272" x2="136" y2="272" style="stroke:#008000;stroke-width:6" />
    <line x1="136" y1="272" x2="165" y2="272" style="stroke:#008000;stroke-width:6" />
  <path d="M164.66960964012816 271.9404807398671           A28.223696502688867 28.223696502688867 0 0 1 192.8933061428171 300.164177242556" fill = "none" stroke = "#008000" stroke-width = "6" />
    <line x1="136" y1="526" x2="137" y2="526" style="stroke:#0000ff;stroke-width:6" />
	<path d = "M137 526 L139 526 L141 523 L143 526 L144 529 L146 526 L148 523 L150 526 L151 529 L153 526 L155 523 L157 526 L158 529 L160 526 L164 526 L165 526 " stroke = "#0000ff" stroke-width = "6" fill = "none" />    <line x1="165" y1="526" x2="166" y2="526" style="stroke:#0000ff;stroke-width:6" />
	<path d = "M166 526 L167 526 L169 523 L171 526 L173 529 L174 526 L176 523 L178 526 L180 529 L181 526 L183 523 L185 526 L187 529 L188 526 L192 526 L193 526 " stroke = "#0000ff" stroke-width = "6" fill = "none" />    <line x1="165" y1="526" x2="165" y2="527" style="stroke:#0000ff;stroke-width:6" />
	<path d = "M165 527 L165 529 L168 530 L165 532 L162 534 L165 536 L168 537 L165 539 L162 541 L165 543 L168 544 L165 546 L162 548 L165 550 L165 553 L165 554 " stroke = "#0000ff" stroke-width = "6" fill = "none" />    <line x1="165" y1="554" x2="165" y2="555" style="stroke:#0000ff;stroke-width:6" />
	<path d = "M165 555 L165 557 L168 559 L165 560 L162 562 L165 564 L168 566 L165 567 L162 569 L165 571 L168 573 L165 574 L162 576 L165 578 L165 582 L165 582 " stroke = "#0000ff" stroke-width = "6" fill = "none" />    <line x1="165" y1="582" x2="164" y2="582" style="stroke:#0000ff;stroke-width:6" />
	<path d = "M164 582 L162 582 L160 585 L158 582 L157 579 L155 582 L153 585 L151 582 L150 579 L148 582 L146 585 L144 582 L143 579 L141 582 L137 582 L136 582 " stroke = "#0000ff" stroke-width = "6" fill = "none" />    <line x1="165" y1="582" x2="166" y2="582" style="stroke:#0000ff;stroke-width:6" />
	<path d = "M166 582 L167 582 L169 579 L171 582 L173 585 L174 582 L176 579 L178 582 L180 585 L181 582 L183 579 L185 582 L187 585 L188 582 L192 582 L193 582 " stroke = "#0000ff" stroke-width = "6" fill = "none" /><circle cx="165" cy = "582" r = "6" stroke = "#0000ff" stroke-width = "6" fill = "#0000ff" />
<circle cx="165" cy = "526" r = "6" stroke = "#0000ff" stroke-width = "6" fill = "#0000ff" />
<circle cx="165" cy = "554" r = "6" stroke = "#0000ff" stroke-width = "6" fill = "#0000ff" />
    <line x1="165" y1="554" x2="179" y2="554" style="stroke:#0000ff;stroke-width:6" />
    <line x1="179" y1="561" x2="179" y2="547" style="stroke:#0000ff;stroke-width:6" />
    <line x1="182" y1="558" x2="182" y2="551" style="stroke:#0000ff;stroke-width:6" />
    <line x1="136" y1="611" x2="151" y2="611" style="stroke:#0000ff;stroke-width:6" />
    <line x1="151" y1="611" x2="151" y2="611" style="stroke:#0000ff;stroke-width:6" />
	<path d = "M151 611 L153 611 L155 608 L157 611 L158 614 L160 611 L162 608 L164 611 L166 614 L167 611 L169 608 L171 611 L173 614 L174 611 L178 611 L179 611 " stroke = "#0000ff" stroke-width = "6" fill = "none" />    <line x1="179" y1="611" x2="193" y2="611" style="stroke:#0000ff;stroke-width:6" />
    <line x1="193" y1="639" x2="179" y2="639" style="stroke:#0000ff;stroke-width:6" />
    <line x1="179" y1="639" x2="178" y2="639" style="stroke:#0000ff;stroke-width:6" />
	<path d = "M178 639 L176 639 L174 642 L173 639 L171 636 L169 639 L167 642 L166 639 L164 636 L162 639 L160 642 L158 639 L157 636 L155 639 L151 639 L151 639 " stroke = "#0000ff" stroke-width = "6" fill = "none" />    <line x1="151" y1="639" x2="136" y2="639" style="stroke:#0000ff;stroke-width:6" />
    <line x1="136" y1="526" x2="108" y2="526" style="stroke:#0000ff;stroke-width:6" />
    <line x1="136" y1="582" x2="108" y2="582" style="stroke:#0000ff;stroke-width:6" />
    <line x1="136" y1="639" x2="108" y2="639" style="stroke:#0000ff;stroke-width:6" />
    <line x1="136" y1="611" x2="108" y2="611" style="stroke:#0000ff;stroke-width:6" />
    <line x1="193" y1="526" x2="193" y2="498" style="stroke:#0000ff;stroke-width:6" />
    <line x1="193" y1="526" x2="221" y2="526" style="stroke:#0000ff;stroke-width:6" />
<circle cx="193" cy = "526" r = "6" stroke = "#0000ff" stroke-width = "6" fill = "#0000ff" />
    <line x1="193" y1="582" x2="221" y2="582" style="stroke:#0000ff;stroke-width:6" />
    <line x1="193" y1="611" x2="221" y2="611" style="stroke:#0000ff;stroke-width:6" />
    <line x1="193" y1="639" x2="221" y2="639" style="stroke:#0000ff;stroke-width:6" />
    <line x1="165" y1="526" x2="165" y2="512" style="stroke:#0000ff;stroke-width:6" />
  <path d="M150.55776138878406 497.73005276137957           A14.111848251344433 14.111848251344433 0 0 1 164.66960964012853 511.841901012724" fill = "none" stroke = "#0000ff" stroke-width = "6" />
    <line x1="151" y1="498" x2="122" y2="498" style="stroke:#0000ff;stroke-width:6" />
    <line x1="122" y1="498" x2="108" y2="498" style="stroke:#0000ff;stroke-width:6" />
    <line x1="108" y1="470" x2="136" y2="470" style="stroke:#0000ff;stroke-width:6" />
    <line x1="136" y1="470" x2="165" y2="470" style="stroke:#0000ff;stroke-width:6" />
  <path d="M164.66960964012844 469.5063562586908           A28.223696502688867 28.223696502688867 0 0 1 192.89330614281738 497.7300527613797" fill = "none" stroke = "#0000ff" stroke-width = "6" />
    <line x1="306" y1="385" x2="334" y2="385" style="stroke:#008000;stroke-width:6" />
    <line x1="334" y1="385" x2="334" y2="357" style="stroke:#008000;stroke-width:6" />
    <line x1="334" y1="357" x2="334" y2="328" style="stroke:#008000;stroke-width:6" />
    <line x1="334" y1="328" x2="334" y2="314" style="stroke:#008000;stroke-width:6" />
    <line x1="334" y1="314" x2="362" y2="314" style="stroke:#008000;stroke-width:6" />
    <line x1="362" y1="314" x2="390" y2="314" style="stroke:#008000;stroke-width:6" />
    <line x1="390" y1="314" x2="390" y2="342" style="stroke:#008000;stroke-width:6" />
    <line x1="390" y1="342" x2="390" y2="371" style="stroke:#008000;stroke-width:6" />
    <line x1="390" y1="371" x2="390" y2="399" style="stroke:#008000;stroke-width:6" />
    <line x1="390" y1="399" x2="390" y2="427" style="stroke:#008000;stroke-width:6" />
    <line x1="390" y1="427" x2="390" y2="455" style="stroke:#008000;stroke-width:6" />
    <line x1="390" y1="455" x2="362" y2="455" style="stroke:#008000;stroke-width:6" />
    <line x1="362" y1="455" x2="334" y2="455" style="stroke:#008000;stroke-width:6" />
    <line x1="334" y1="455" x2="334" y2="427" style="stroke:#008000;stroke-width:6" />
    <line x1="334" y1="427" x2="334" y2="399" style="stroke:#008000;stroke-width:6" />
    <line x1="334" y1="399" x2="334" y2="385" style="stroke:#008000;stroke-width:6" />
    <line x1="334" y1="328" x2="306" y2="328" style="stroke:#008000;stroke-width:6" />
    <line x1="334" y1="413" x2="306" y2="413" style="stroke:#008000;stroke-width:6" />
    <line x1="334" y1="441" x2="306" y2="441" style="stroke:#008000;stroke-width:6" />
<path    d = "M348,385 C362,385 366,389 376,399" fill = "none" stroke-width = "6" stroke = "#008000" />    <line x1="390" y1="385" x2="419" y2="385" style="stroke:#008000;stroke-width:6" />
    <line x1="390" y1="328" x2="419" y2="328" style="stroke:#008000;stroke-width:6" />
    <line x1="390" y1="413" x2="419" y2="413" style="stroke:#008000;stroke-width:6" />
    <line x1="390" y1="441" x2="419" y2="441" style="stroke:#008000;stroke-width:6" />
    <line x1="475" y1="385" x2="503" y2="385" style="stroke:#008000;stroke-width:6" />
	<path d = "M532 399 L532 371 L503 371 L503 399 L532 399 Z" stroke = "#008000" stroke-width = "6" fill = "none" />	<path d = "M532 342 L532 314 L503 314 L503 342 L532 342 Z" stroke = "#008000" stroke-width = "6" fill = "none" />	<path d = "M666 413 L666 300 L553 300 L553 413 L666 413 Z" stroke = "#008000" stroke-width = "6" fill = "none" />	<path d = "M595 342 L595 314 L567 314 L567 342 L595 342 Z" stroke = "#008000" stroke-width = "6" fill = "none" />	<path d = "M595 399 L595 371 L567 371 L567 399 L595 399 Z" stroke = "#008000" stroke-width = "6" fill = "none" /><path    d = "M517,385 C537,365 554,365 574,385" fill = "none" stroke-width = "6" stroke = "#008000" /><path    d = "M517,328 C537,308 554,308 574,328" fill = "none" stroke-width = "6" stroke = "#008000" />    <line x1="503" y1="328" x2="475" y2="328" style="stroke:#008000;stroke-width:6" />
    <line x1="475" y1="385" x2="419" y2="385" style="stroke:#008000;stroke-width:6" />
    <line x1="475" y1="328" x2="419" y2="328" style="stroke:#008000;stroke-width:6" />
  <path d="M438.6400453515307 404.7924339378285           A28.223696502688867 28.223696502688867 0 0 1 418.6828781643284 413.0589632533151" fill = "none" stroke = "#008000" stroke-width = "6" />
  <path d="M444.7581736949729 395.63600780230564           A28.223696502688867 28.223696502688867 0 0 1 438.6400453515307 404.7924339378285" fill = "none" stroke = "#008000" stroke-width = "6" />
    <line x1="447" y1="378" x2="447" y2="350" style="stroke:#008000;stroke-width:6" />
    <line x1="447" y1="350" x2="447" y2="335" style="stroke:#008000;stroke-width:6" />
    <line x1="447" y1="335" x2="447" y2="328" style="stroke:#008000;stroke-width:6" />
<circle cx="447" cy = "328" r = "6" stroke = "#008000" stroke-width = "6" fill = "#008000" />
    <line x1="419" y1="441" x2="447" y2="441" style="stroke:#008000;stroke-width:6" />
  <path d="M475.1302711697062 413.0589632533147           A28.223696502688867 28.223696502688867 0 0 1 446.9065746670175 441.28265975600374" fill = "none" stroke = "#008000" stroke-width = "6" />
    <line x1="475" y1="413" x2="475" y2="399" style="stroke:#008000;stroke-width:6" />
    <line x1="475" y1="399" x2="475" y2="392" style="stroke:#008000;stroke-width:6" />
    <line x1="475" y1="378" x2="475" y2="371" style="stroke:#008000;stroke-width:6" />
    <line x1="475" y1="371" x2="475" y2="357" style="stroke:#008000;stroke-width:6" />
    <line x1="475" y1="357" x2="475" y2="342" style="stroke:#008000;stroke-width:6" />
    <line x1="475" y1="342" x2="475" y2="328" style="stroke:#008000;stroke-width:6" />
<circle cx="475" cy = "328" r = "6" stroke = "#008000" stroke-width = "6" fill = "#008000" />
    <line x1="306" y1="187" x2="334" y2="187" style="stroke:#ff0000;stroke-width:6" />
    <line x1="334" y1="187" x2="334" y2="159" style="stroke:#ff0000;stroke-width:6" />
    <line x1="334" y1="159" x2="334" y2="131" style="stroke:#ff0000;stroke-width:6" />
    <line x1="334" y1="131" x2="334" y2="117" style="stroke:#ff0000;stroke-width:6" />
    <line x1="334" y1="117" x2="362" y2="117" style="stroke:#ff0000;stroke-width:6" />
    <line x1="362" y1="117" x2="390" y2="117" style="stroke:#ff0000;stroke-width:6" />
    <line x1="390" y1="117" x2="390" y2="145" style="stroke:#ff0000;stroke-width:6" />
    <line x1="390" y1="145" x2="390" y2="173" style="stroke:#ff0000;stroke-width:6" />
    <line x1="390" y1="173" x2="390" y2="201" style="stroke:#ff0000;stroke-width:6" />
    <line x1="390" y1="201" x2="390" y2="230" style="stroke:#ff0000;stroke-width:6" />
    <line x1="390" y1="230" x2="390" y2="258" style="stroke:#ff0000;stroke-width:6" />
    <line x1="390" y1="258" x2="362" y2="258" style="stroke:#ff0000;stroke-width:6" />
    <line x1="362" y1="258" x2="334" y2="258" style="stroke:#ff0000;stroke-width:6" />
    <line x1="334" y1="258" x2="334" y2="230" style="stroke:#ff0000;stroke-width:6" />
    <line x1="334" y1="230" x2="334" y2="201" style="stroke:#ff0000;stroke-width:6" />
    <line x1="334" y1="201" x2="334" y2="187" style="stroke:#ff0000;stroke-width:6" />
    <line x1="334" y1="131" x2="306" y2="131" style="stroke:#ff0000;stroke-width:6" />
    <line x1="334" y1="215" x2="306" y2="215" style="stroke:#ff0000;stroke-width:6" />
    <line x1="334" y1="244" x2="306" y2="244" style="stroke:#ff0000;stroke-width:6" />
<path    d = "M348,187 C362,187 366,191 376,201" fill = "none" stroke-width = "6" stroke = "#ff0000" />    <line x1="390" y1="187" x2="419" y2="187" style="stroke:#ff0000;stroke-width:6" />
    <line x1="390" y1="131" x2="419" y2="131" style="stroke:#ff0000;stroke-width:6" />
    <line x1="390" y1="215" x2="419" y2="215" style="stroke:#ff0000;stroke-width:6" />
    <line x1="390" y1="244" x2="419" y2="244" style="stroke:#ff0000;stroke-width:6" />
    <line x1="475" y1="187" x2="503" y2="187" style="stroke:#ff0000;stroke-width:6" />
	<path d = "M532 201 L532 173 L503 173 L503 201 L532 201 Z" stroke = "#ff0000" stroke-width = "6" fill = "none" />	<path d = "M532 145 L532 117 L503 117 L503 145 L532 145 Z" stroke = "#ff0000" stroke-width = "6" fill = "none" />	<path d = "M666 215 L666 103 L553 103 L553 215 L666 215 Z" stroke = "#ff0000" stroke-width = "6" fill = "none" />	<path d = "M595 145 L595 117 L567 117 L567 145 L595 145 Z" stroke = "#ff0000" stroke-width = "6" fill = "none" />	<path d = "M595 201 L595 173 L567 173 L567 201 L595 201 Z" stroke = "#ff0000" stroke-width = "6" fill = "none" /><path    d = "M517,187 C537,167 554,167 574,187" fill = "none" stroke-width = "6" stroke = "#ff0000" /><path    d = "M517,131 C537,111 554,111 574,131" fill = "none" stroke-width = "6" stroke = "#ff0000" />    <line x1="503" y1="131" x2="475" y2="131" style="stroke:#ff0000;stroke-width:6" />
    <line x1="475" y1="187" x2="419" y2="187" style="stroke:#ff0000;stroke-width:6" />
    <line x1="475" y1="131" x2="419" y2="131" style="stroke:#ff0000;stroke-width:6" />
  <path d="M438.6400453515301 207.22655841900837           A28.223696502688867 28.223696502688867 0 0 1 418.682878164328 215.4930877344953" fill = "none" stroke = "#ff0000" stroke-width = "6" />
  <path d="M444.7581736949722 198.07013228348552           A28.223696502688867 28.223696502688867 0 0 1 438.6400453515301 207.22655841900837" fill = "none" stroke = "#ff0000" stroke-width = "6" />
    <line x1="447" y1="180" x2="447" y2="152" style="stroke:#ff0000;stroke-width:6" />
    <line x1="447" y1="152" x2="447" y2="138" style="stroke:#ff0000;stroke-width:6" />
    <line x1="447" y1="138" x2="447" y2="131" style="stroke:#ff0000;stroke-width:6" />
<circle cx="447" cy = "131" r = "6" stroke = "#ff0000" stroke-width = "6" fill = "#ff0000" />
    <line x1="419" y1="244" x2="447" y2="244" style="stroke:#ff0000;stroke-width:6" />
  <path d="M475.1302711697055 215.49308773449448           A28.223696502688867 28.223696502688867 0 0 1 446.90657466701697 243.71678423718373" fill = "none" stroke = "#ff0000" stroke-width = "6" />
    <line x1="475" y1="215" x2="475" y2="201" style="stroke:#ff0000;stroke-width:6" />
    <line x1="475" y1="201" x2="475" y2="194" style="stroke:#ff0000;stroke-width:6" />
    <line x1="475" y1="180" x2="475" y2="173" style="stroke:#ff0000;stroke-width:6" />
    <line x1="475" y1="173" x2="475" y2="159" style="stroke:#ff0000;stroke-width:6" />
    <line x1="475" y1="159" x2="475" y2="145" style="stroke:#ff0000;stroke-width:6" />
    <line x1="475" y1="145" x2="475" y2="131" style="stroke:#ff0000;stroke-width:6" />
<circle cx="475" cy = "131" r = "6" stroke = "#ff0000" stroke-width = "6" fill = "#ff0000" />
    <line x1="306" y1="582" x2="334" y2="582" style="stroke:#0000ff;stroke-width:6" />
    <line x1="334" y1="582" x2="334" y2="554" style="stroke:#0000ff;stroke-width:6" />
    <line x1="334" y1="554" x2="334" y2="526" style="stroke:#0000ff;stroke-width:6" />
    <line x1="334" y1="526" x2="334" y2="512" style="stroke:#0000ff;stroke-width:6" />
    <line x1="334" y1="512" x2="362" y2="512" style="stroke:#0000ff;stroke-width:6" />
    <line x1="362" y1="512" x2="390" y2="512" style="stroke:#0000ff;stroke-width:6" />
    <line x1="390" y1="512" x2="390" y2="540" style="stroke:#0000ff;stroke-width:6" />
    <line x1="390" y1="540" x2="390" y2="568" style="stroke:#0000ff;stroke-width:6" />
    <line x1="390" y1="568" x2="390" y2="597" style="stroke:#0000ff;stroke-width:6" />
    <line x1="390" y1="597" x2="390" y2="625" style="stroke:#0000ff;stroke-width:6" />
    <line x1="390" y1="625" x2="390" y2="653" style="stroke:#0000ff;stroke-width:6" />
    <line x1="390" y1="653" x2="362" y2="653" style="stroke:#0000ff;stroke-width:6" />
    <line x1="362" y1="653" x2="334" y2="653" style="stroke:#0000ff;stroke-width:6" />
    <line x1="334" y1="653" x2="334" y2="625" style="stroke:#0000ff;stroke-width:6" />
    <line x1="334" y1="625" x2="334" y2="597" style="stroke:#0000ff;stroke-width:6" />
    <line x1="334" y1="597" x2="334" y2="582" style="stroke:#0000ff;stroke-width:6" />
    <line x1="334" y1="526" x2="306" y2="526" style="stroke:#0000ff;stroke-width:6" />
    <line x1="334" y1="611" x2="306" y2="611" style="stroke:#0000ff;stroke-width:6" />
    <line x1="334" y1="639" x2="306" y2="639" style="stroke:#0000ff;stroke-width:6" />
<path    d = "M348,582 C362,582 366,587 376,597" fill = "none" stroke-width = "6" stroke = "#0000ff" />    <line x1="390" y1="582" x2="419" y2="582" style="stroke:#0000ff;stroke-width:6" />
    <line x1="390" y1="526" x2="419" y2="526" style="stroke:#0000ff;stroke-width:6" />
    <line x1="390" y1="611" x2="419" y2="611" style="stroke:#0000ff;stroke-width:6" />
    <line x1="390" y1="639" x2="419" y2="639" style="stroke:#0000ff;stroke-width:6" />
    <line x1="475" y1="582" x2="503" y2="582" style="stroke:#0000ff;stroke-width:6" />
	<path d = "M532 597 L532 568 L503 568 L503 597 L532 597 Z" stroke = "#0000ff" stroke-width = "6" fill = "none" />	<path d = "M532 540 L532 512 L503 512 L503 540 L532 540 Z" stroke = "#0000ff" stroke-width = "6" fill = "none" />	<path d = "M666 611 L666 498 L553 498 L553 611 L666 611 Z" stroke = "#0000ff" stroke-width = "6" fill = "none" />	<path d = "M595 540 L595 512 L567 512 L567 540 L595 540 Z" stroke = "#0000ff" stroke-width = "6" fill = "none" />	<path d = "M595 597 L595 568 L567 568 L567 597 L595 597 Z" stroke = "#0000ff" stroke-width = "6" fill = "none" /><path    d = "M517,582 C537,562 554,562 574,582" fill = "none" stroke-width = "6" stroke = "#0000ff" /><path    d = "M517,526 C537,506 554,506 574,526" fill = "none" stroke-width = "6" stroke = "#0000ff" />    <line x1="503" y1="526" x2="475" y2="526" style="stroke:#0000ff;stroke-width:6" />
    <line x1="475" y1="582" x2="419" y2="582" style="stroke:#0000ff;stroke-width:6" />
    <line x1="475" y1="526" x2="419" y2="526" style="stroke:#0000ff;stroke-width:6" />
  <path d="M438.64004535153504 602.3583094566578           A28.223696502688867 28.223696502688867 0 0 1 418.68287816433303 610.6248387721449" fill = "none" stroke = "#0000ff" stroke-width = "6" />
  <path d="M444.7581736949771 593.2018833211349           A28.223696502688867 28.223696502688867 0 0 1 438.64004535153504 602.3583094566578" fill = "none" stroke = "#0000ff" stroke-width = "6" />
    <line x1="447" y1="575" x2="447" y2="547" style="stroke:#0000ff;stroke-width:6" />
    <line x1="447" y1="547" x2="447" y2="533" style="stroke:#0000ff;stroke-width:6" />
    <line x1="447" y1="533" x2="447" y2="526" style="stroke:#0000ff;stroke-width:6" />
<circle cx="447" cy = "526" r = "6" stroke = "#0000ff" stroke-width = "6" fill = "#0000ff" />
    <line x1="419" y1="639" x2="447" y2="639" style="stroke:#0000ff;stroke-width:6" />
  <path d="M475.1302711697105 610.6248387721436           A28.223696502688867 28.223696502688867 0 0 1 446.9065746670223 638.848535274833" fill = "none" stroke = "#0000ff" stroke-width = "6" />
    <line x1="475" y1="611" x2="475" y2="597" style="stroke:#0000ff;stroke-width:6" />
    <line x1="475" y1="597" x2="475" y2="589" style="stroke:#0000ff;stroke-width:6" />
    <line x1="475" y1="575" x2="475" y2="568" style="stroke:#0000ff;stroke-width:6" />
    <line x1="475" y1="568" x2="475" y2="554" style="stroke:#0000ff;stroke-width:6" />
    <line x1="475" y1="554" x2="475" y2="540" style="stroke:#0000ff;stroke-width:6" />
    <line x1="475" y1="540" x2="475" y2="526" style="stroke:#0000ff;stroke-width:6" />
<circle cx="475" cy = "526" r = "6" stroke = "#0000ff" stroke-width = "6" fill = "#0000ff" />
</svg>