<svg width="700" height="700" viewbox = "0 0 700 700"  xmlns="http://www.w3.org/2000/svg">
<!--<json>{
  "glyph": "0225,0333,0333,0330,0333,0330,0333,0330,0333,0330,0333,0330,0330,0330,0330,0322,0331,0331,0331,0331,0331,0331,0331,0331,0331,0227,",
  "x0": 50.0904379784736,
  "y0": 331.1247456082774,
  "unit": 31.046066152957756,
  "width": 700,
  "height": 700,
  "style": {
    "color0": "black",
    "fill0": "black",
    "line0": 1,
    "color1": "black",
    "fill1": "black",
    "line1": 5,
    "color2": "red",
    "fill2": "red",
    "line2": 6,
    "color3": "orange",
    "fill3": "#ff000040",
    "line3": 1,
    "color4": "yellow",
    "fill4": "yellow",
    "line4": 1,
    "color5": "green",
    "fill5": "green",
    "line5": 6,
    "color6": "blue",
    "fill6": "blue",
    "line6": 6,
    "color7": "purple",
    "fill7": "purple",
    "line7": 3
  },
  "shapes": [
    "0220:0336,0336,0336,0336,0336,0201,0337,0362,0203,0306,0334,0337,0203,0335,0335,0203,0203,0334,0334,0203,0203,0335,0335,0203,0203,0334,0334,0203,0203,0335,0335,0203,0203,0334,0334,0203,0335,0203,0336,0336,0203,0364,0304,0337,0337,0337,0337,0337,",
    "0221:0336,0314,0336,0313,0337,0237,0237,0237,0237,0337,0314,0337,0313,0336,",
    "0222:0336,0336,0362,0203,0336,0203,0334,0364,0337,0342,0335,0335,0342,0332,0342,0335,0335,0342,0335,0336,0362,0203,0337,0203,0335,0364,0335,0337,0337,0335,0335,",
    "0223:0336,0331,0342,0337,0304,0336,0336,0335,0310,0362,0203,0335,0350,0335,0337,0203,0335,0335,0203,0335,0335,0335,0336,0203,0354,0304,0334,0313,0337,0337,0304,0336,0330,0337,",
    "0224:0333,0330,0330,0335,0220,0220,0331,0335,0220,0220,0335,0220,0335,0335,0330,0220,0331,0340,0334,0330,0330,0340,0331,0340,0335,0336,0201,0334,0336,0331,0337,0342,0336,0333,0336,0330,0332,0337,0342,0336,0330,0332,0332,0332,0332,0332,0337,0337,0337,0331,0335,0330,0331,0331,0333,0336,0201,0337,0220,0336,0201,0334,0334,0332,0332,0201,0337,0220,0336,0201,0335,0337,0330,0330,0330,0330,0334,0342,0332,0332,0342,0332,0332,0342,0333,0342,0335,0330,0330,0330,0333,0350,0335,0333,0334,0342,0335,0335,0342,0334,0334,0340,0304,0331,0331,0335,0342,0333,0342,0333,0342,0334,0330,0330,0330,0330,0330,0336,0331,0332,0332,0331,0337,0336,0201,0332,0350,0335,0343,0334,0330,0334,0334,0337,0342,0330,0336,0342,0335,0335,0335,0335,0331,0334,0334,0337,0330,0335,0335,0201,0201,0334,0334,0331,0335,0343,0334,0331,0304,0331,0331,0332,0332,",
    "0225:0330,0330,0330,0330,0330,0330,0322,0224,0331,0331,0331,0331,0331,0325,0331,0331,0224,0331,0331,0331,0331,0331,0326,0331,0331,0224,0333,0333,0330,0330,0330,0330,0330,0330,0330,0330,0332,0332,",
    "0226:0335,0201,0334,0201,0201,0336,0201,0335,0337,0201,0201,0335,0201,0201,0201,0201,0201,0335,0201,0201,0335,0201,0201,0336,0201,0337,0330,0330,0334,0342,0332,0332,0332,0342,0332,0342,0335,0330,0330,0336,0333,0335,0366,0330,0330,0334,0331,0350,0334,0367,0335,0304,0333,0330,0335,0337,0342,0332,0332,0342,0333,0333,0333,0342,0333,0342,0334,0330,0330,0333,0333,0335,0330,0201,0334,0335,0334,0333,0336,0331,0332,0333,0337,0200,0330,0330,0200,0333,0333,0333,0331,0331,0333,0337,0337,0336,0336,0333,0336,0336,0330,0330,0332,0337,0337,0331,0337,0337,0200,0336,0330,0332,0336,0336,0330,0332,0337,0200,0331,0331,0200,0332,0332,0332,0336,0333,0330,0336,0332,0337,0337,0350,0335,0366,0333,0333,0334,0334,0367,0334,0330,0330,0335,0335,0330,0330,0335,0366,0333,0333,0334,0334,0367,0335,0304,0331,0332,0332,0330,0332,0336,0333,0337,0334,0342,0335,0331,0331,0331,0332,0330,0334,0337,0342,0333,0342,0335,0331,0332,0336,0331,0335,0332,0335,0350,0334,0350,0335,0343,0334,0350,0334,0343,0334,0334,0334,0330,0334,0334,0334,0334,0334,0334,0334,0334,0304,0336,0336,0330,0337,0337,0342,0330,0336,0342,0330,0336,0342,0337,0330,0336,0331,0337,0337,0337,0340,0335,0336,0331,0337,0334,0331,0336,0331,0331,0335,0201,0332,0350,0335,0343,0334,0330,0334,0334,0304,0201,0340,0332,0332,0332,0331,0336,0330,0332,0332,0330,0332,0332,0337,0332,",
    "0227:0325,0226,0330,0330,0330,0330,0330,0330,0330,0322,0226,0331,0331,0331,0331,0331,0331,0331,0331,0331,0331,0331,0331,0331,0331,0326,0226,0330,0330,0330,0330,0330,0330,",
    "0230:0335,0201,0336,0331,0335,0337,0234,0220,0234,0334,0336,0331,0337,0342,0334,0333,0330,",
    "0231:0335,0330,0334,0334,0221,0335,0331,0335,0201,0332,0334,",
    "0232:0335,0342,0336,0330,0335,0337,0234,0221,0335,0234,0335,0335,0336,0331,0337,0342,0334,0330,0333,",
    "0233:0335,0236,0333,0236,0334,0330,",
    "0234:0336,0336,0336,0336,0347,0337,0337,0337,0337,",
    "0235:0336,0366,0330,0333,0333,0336,0331,0337,0367,0335,0335,0366,0331,0333,0333,0367,0335,0335,0337,",
    "0236:0336,0201,0336,0336,0330,0341,0331,0337,0337,0331,0337,",
    "0237:0336,0366,0330,0333,0333,0336,0331,0337,0367,0335,0335,0366,0331,0333,0333,0367,0335,0335,0337,",
    "01220:0333,0200,0336,0332,0337,0220,0336,0333,0337,0331,",
    "01221:0333,0200,0336,0332,0337,0336,0336,0336,0332,0337,0337,0337,0221,0331,0336,0333,0336,0336,0333,0337,0337,0337,",
    "01222:0333,0200,0336,0332,0337,0222,0336,0333,0337,0331,",
    "01223:0333,0200,0336,0332,0337,0330,0223,0331,0336,0333,0337,",
    "01224:0333,0200,0336,0330,0332,0336,0332,0224,0333,0333,0333,0331,0331,0337,0337,",
    "01225:0333,0200,0336,0330,0332,0336,0330,0332,0337,0225,0336,0333,0330,0337,0337,0331,",
    "01226:0333,0200,0336,0330,0332,0336,0336,0336,0332,0332,0332,0332,0332,0332,0226,0332,0332,0337,0337,0337,0331,0333,0333,0337,",
    "01227:0333,0200,0336,0330,0332,0336,0336,0332,0332,0336,0336,0227,0337,0337,0337,0332,0337,0331,0333,0333,0337,",
    "01230:0333,0200,0336,0330,0332,0336,0330,0332,0337,0230,0336,0333,0330,0337,0337,0331,",
    "01231:0333,0200,0336,0330,0332,0336,0330,0332,0337,0231,0331,0336,0331,0333,0337,0337,",
    "01232:0333,0200,0336,0330,0332,0336,0330,0332,0337,0232,0336,0333,0330,0337,0337,0331,",
    "01233:0333,0200,0336,0330,0332,0336,0330,0332,0337,0233,0333,0336,0333,0330,0337,0337,0331,",
    "01234:0333,0200,0336,0330,0332,0234,0342,0335,0342,0335,0342,0335,0342,0335,0331,0333,0337,",
    "01235:0333,0200,0336,0330,0332,0336,0332,0330,0337,0235,0331,0336,0333,0331,0337,0337,",
    "01236:0333,0200,0336,0330,0332,0236,0331,0333,0337,",
    "01237:0333,0200,0336,0330,0332,0336,0331,0332,0332,0337,0337,0237,0331,0333,",
    "0240:0220,0336,0331,0333,0336,0321,0335,0342,0335,0335,0342,0335,0330,0330,0332,0332,0337,0337,",
    "01240:0333,0200,0336,0330,0332,0210,0240,0211,0333,0331,0337,",
    "0241:0220,0336,0321,0343,0332,0350,0335,0336,0342,0334,0334,0342,0335,0304,0337,0333,0337,",
    "01241:0333,0200,0336,0332,0330,0210,0241,0211,0333,0331,0337,",
    "0242:0220,0321,0336,0343,0333,0336,0350,0335,0342,0334,0334,0342,0335,0337,0304,0332,0337,",
    "01242:0333,0200,0336,0330,0332,0210,0242,0211,0333,0331,0337,",
    "0243:0220,0336,0331,0332,0336,0321,0343,0332,0350,0334,0336,0342,0335,0335,0342,0337,0334,0334,0335,0304,0332,0330,0330,0337,0337,0333,",
    "01243:0333,0200,0336,0330,0332,0210,0243,0211,0333,0331,0337,",
    "0244:0220,0336,0331,0333,0336,0321,0343,0333,0350,0336,0335,0342,0334,0334,0342,0335,0337,0304,0333,0330,0330,0337,0337,0332,",
    "01244:0333,0200,0336,0330,0332,0210,0244,0211,0333,0331,0337,",
    "0245:0210,0332,0332,0362,0335,0203,0203,0203,0203,0334,0203,0363,0332,0332,0331,0211,",
    "01245:0333,0200,0336,0330,0332,0336,0245,0337,0333,0331,0337,",
    "0246:0210,0332,0332,0335,0306,0336,0330,0335,0335,0335,0321,0362,0203,0335,0335,0203,0364,0331,0350,0335,0337,0366,0333,0333,0333,0333,0334,0334,0334,0334,0367,0335,0336,0342,0334,0334,0342,0330,0330,0330,0330,0335,0335,0335,0304,0337,0211,",
    "01246:0333,0200,0336,0330,0332,0336,0246,",
    "0247:0330,0332,0336,0332,0336,0221,0333,0333,0333,0222,0333,0333,0333,0223,0333,0333,0333,0225,0333,0331,0331,0331,0332,0332,0332,0332,0332,0332,0332,0332,0332,0332,0332,0332,0333,0333,0226,0331,0331,0331,0333,0333,0333,0333,0333,0333,0333,0333,0333,0333,0333,0333,0333,0330,0333,0330,0330,0333,0330,0331,0332,0332,0332,0332,0332,0332,0332,0332,0332,0332,0332,0332,0227,0333,0333,0333,0230,0333,0331,0331,0331,0331,0332,0332,0332,0330,0332,0332,0332,0332,0332,0332,0333,0333,0231,0333,0333,0333,0232,0331,0333,0330,0333,0333,0233,0333,0333,0333,0234,0330,0330,0332,0330,0332,0332,0337,0337,",
    "01247:0333,0200,0336,0330,0332,0220,0336,0247,0337,0331,0333,0337,"
  ]
}</json>-->    <line x1="81" y1="83" x2="82" y2="83" style="stroke:#ff0000;stroke-width:6" />
	<path d = "M82 83 L84 83 L86 79 L88 83 L90 86 L92 83 L94 79 L96 83 L98 86 L100 83 L102 79 L103 83 L105 86 L107 83 L111 83 L112 83 " stroke = "#ff0000" stroke-width = "6" fill = "none" />    <line x1="112" y1="83" x2="113" y2="83" style="stroke:#ff0000;stroke-width:6" />
	<path d = "M113 83 L115 83 L117 79 L119 83 L121 86 L123 83 L125 79 L127 83 L129 86 L131 83 L133 79 L134 83 L136 86 L138 83 L142 83 L143 83 " stroke = "#ff0000" stroke-width = "6" fill = "none" />    <line x1="112" y1="83" x2="112" y2="84" style="stroke:#ff0000;stroke-width:6" />
	<path d = "M112 84 L112 86 L116 88 L112 90 L109 91 L112 93 L116 95 L112 97 L109 99 L112 101 L116 103 L112 105 L109 107 L112 109 L112 113 L112 114 " stroke = "#ff0000" stroke-width = "6" fill = "none" />    <line x1="112" y1="114" x2="112" y2="115" style="stroke:#ff0000;stroke-width:6" />
	<path d = "M112 115 L112 117 L116 119 L112 121 L109 123 L112 124 L116 126 L112 128 L109 130 L112 132 L116 134 L112 136 L109 138 L112 140 L112 144 L112 145 " stroke = "#ff0000" stroke-width = "6" fill = "none" />    <line x1="112" y1="145" x2="111" y2="145" style="stroke:#ff0000;stroke-width:6" />
	<path d = "M111 145 L109 145 L107 148 L105 145 L103 141 L102 145 L100 148 L98 145 L96 141 L94 145 L92 148 L90 145 L88 141 L86 145 L82 145 L81 145 " stroke = "#ff0000" stroke-width = "6" fill = "none" />    <line x1="112" y1="145" x2="113" y2="145" style="stroke:#ff0000;stroke-width:6" />
	<path d = "M113 145 L115 145 L117 141 L119 145 L121 148 L123 145 L125 141 L127 145 L129 148 L131 145 L133 141 L134 145 L136 148 L138 145 L142 145 L143 145 " stroke = "#ff0000" stroke-width = "6" fill = "none" /><circle cx="112" cy = "145" r = "6" stroke = "#ff0000" stroke-width = "6" fill = "#ff0000" />
<circle cx="112" cy = "83" r = "6" stroke = "#ff0000" stroke-width = "6" fill = "#ff0000" />
<circle cx="112" cy = "114" r = "6" stroke = "#ff0000" stroke-width = "6" fill = "#ff0000" />
    <line x1="112" y1="114" x2="128" y2="114" style="stroke:#ff0000;stroke-width:6" />
    <line x1="128" y1="122" x2="128" y2="106" style="stroke:#ff0000;stroke-width:6" />
    <line x1="132" y1="118" x2="132" y2="110" style="stroke:#ff0000;stroke-width:6" />
    <line x1="81" y1="176" x2="97" y2="176" style="stroke:#ff0000;stroke-width:6" />
    <line x1="97" y1="176" x2="98" y2="176" style="stroke:#ff0000;stroke-width:6" />
	<path d = "M98 176 L100 176 L102 173 L103 176 L105 179 L107 176 L109 173 L111 176 L113 179 L115 176 L117 173 L119 176 L121 179 L123 176 L127 176 L128 176 " stroke = "#ff0000" stroke-width = "6" fill = "none" />    <line x1="128" y1="176" x2="143" y2="176" style="stroke:#ff0000;stroke-width:6" />
    <line x1="143" y1="207" x2="128" y2="207" style="stroke:#ff0000;stroke-width:6" />
    <line x1="128" y1="207" x2="127" y2="207" style="stroke:#ff0000;stroke-width:6" />
	<path d = "M127 207 L125 207 L123 210 L121 207 L119 204 L117 207 L115 210 L113 207 L111 204 L109 207 L107 210 L105 207 L103 204 L102 207 L98 207 L97 207 " stroke = "#ff0000" stroke-width = "6" fill = "none" />    <line x1="97" y1="207" x2="81" y2="207" style="stroke:#ff0000;stroke-width:6" />
    <line x1="81" y1="83" x2="50" y2="83" style="stroke:#ff0000;stroke-width:6" />
    <line x1="81" y1="145" x2="50" y2="145" style="stroke:#ff0000;stroke-width:6" />
    <line x1="81" y1="207" x2="50" y2="207" style="stroke:#ff0000;stroke-width:6" />
    <line x1="81" y1="176" x2="50" y2="176" style="stroke:#ff0000;stroke-width:6" />
    <line x1="143" y1="83" x2="143" y2="52" style="stroke:#ff0000;stroke-width:6" />
    <line x1="143" y1="83" x2="174" y2="83" style="stroke:#ff0000;stroke-width:6" />
<circle cx="143" cy = "83" r = "6" stroke = "#ff0000" stroke-width = "6" fill = "#ff0000" />
    <line x1="143" y1="145" x2="174" y2="145" style="stroke:#ff0000;stroke-width:6" />
    <line x1="143" y1="176" x2="174" y2="176" style="stroke:#ff0000;stroke-width:6" />
    <line x1="143" y1="207" x2="174" y2="207" style="stroke:#ff0000;stroke-width:6" />
    <line x1="112" y1="83" x2="112" y2="67" style="stroke:#ff0000;stroke-width:6" />
  <path d="M96.65953720791028 51.710150231657224           A15.523033076478878 15.523033076478878 0 0 1 112.18257028438916 67.2331833081361" fill = "none" stroke = "#ff0000" stroke-width = "6" />
    <line x1="97" y1="52" x2="66" y2="52" style="stroke:#ff0000;stroke-width:6" />
    <line x1="66" y1="52" x2="50" y2="52" style="stroke:#ff0000;stroke-width:6" />
    <line x1="50" y1="21" x2="81" y2="21" style="stroke:#ff0000;stroke-width:6" />
    <line x1="81" y1="21" x2="112" y2="21" style="stroke:#ff0000;stroke-width:6" />
  <path d="M112.18257028438916 20.664084078699467           A31.046066152957756 31.046066152957756 0 0 1 143.22863643734692 51.71015023165722" fill = "none" stroke = "#ff0000" stroke-width = "6" />
    <line x1="81" y1="300" x2="82" y2="300" style="stroke:#008000;stroke-width:6" />
	<path d = "M82 300 L84 300 L86 297 L88 300 L90 303 L92 300 L94 297 L96 300 L98 303 L100 300 L102 297 L103 300 L105 303 L107 300 L111 300 L112 300 " stroke = "#008000" stroke-width = "6" fill = "none" />    <line x1="112" y1="300" x2="113" y2="300" style="stroke:#008000;stroke-width:6" />
	<path d = "M113 300 L115 300 L117 297 L119 300 L121 303 L123 300 L125 297 L127 300 L129 303 L131 300 L133 297 L134 300 L136 303 L138 300 L142 300 L143 300 " stroke = "#008000" stroke-width = "6" fill = "none" />    <line x1="112" y1="300" x2="112" y2="301" style="stroke:#008000;stroke-width:6" />
	<path d = "M112 301 L112 303 L116 305 L112 307 L109 309 L112 311 L116 313 L112 315 L109 317 L112 319 L116 320 L112 322 L109 324 L112 326 L112 330 L112 331 " stroke = "#008000" stroke-width = "6" fill = "none" />    <line x1="112" y1="331" x2="112" y2="332" style="stroke:#008000;stroke-width:6" />
	<path d = "M112 332 L112 334 L116 336 L112 338 L109 340 L112 342 L116 344 L112 346 L109 348 L112 350 L116 351 L112 353 L109 355 L112 357 L112 361 L112 362 " stroke = "#008000" stroke-width = "6" fill = "none" />    <line x1="112" y1="362" x2="111" y2="362" style="stroke:#008000;stroke-width:6" />
	<path d = "M111 362 L109 362 L107 366 L105 362 L103 359 L102 362 L100 366 L98 362 L96 359 L94 362 L92 366 L90 362 L88 359 L86 362 L82 362 L81 362 " stroke = "#008000" stroke-width = "6" fill = "none" />    <line x1="112" y1="362" x2="113" y2="362" style="stroke:#008000;stroke-width:6" />
	<path d = "M113 362 L115 362 L117 359 L119 362 L121 366 L123 362 L125 359 L127 362 L129 366 L131 362 L133 359 L134 362 L136 366 L138 362 L142 362 L143 362 " stroke = "#008000" stroke-width = "6" fill = "none" /><circle cx="112" cy = "362" r = "6" stroke = "#008000" stroke-width = "6" fill = "#008000" />
<circle cx="112" cy = "300" r = "6" stroke = "#008000" stroke-width = "6" fill = "#008000" />
<circle cx="112" cy = "331" r = "6" stroke = "#008000" stroke-width = "6" fill = "#008000" />
    <line x1="112" y1="331" x2="128" y2="331" style="stroke:#008000;stroke-width:6" />
    <line x1="128" y1="339" x2="128" y2="323" style="stroke:#008000;stroke-width:6" />
    <line x1="132" y1="335" x2="132" y2="327" style="stroke:#008000;stroke-width:6" />
    <line x1="81" y1="393" x2="97" y2="393" style="stroke:#008000;stroke-width:6" />
    <line x1="97" y1="393" x2="98" y2="393" style="stroke:#008000;stroke-width:6" />
	<path d = "M98 393 L100 393 L102 390 L103 393 L105 397 L107 393 L109 390 L111 393 L113 397 L115 393 L117 390 L119 393 L121 397 L123 393 L127 393 L128 393 " stroke = "#008000" stroke-width = "6" fill = "none" />    <line x1="128" y1="393" x2="143" y2="393" style="stroke:#008000;stroke-width:6" />
    <line x1="143" y1="424" x2="128" y2="424" style="stroke:#008000;stroke-width:6" />
    <line x1="128" y1="424" x2="127" y2="424" style="stroke:#008000;stroke-width:6" />
	<path d = "M127 424 L125 424 L123 428 L121 424 L119 421 L117 424 L115 428 L113 424 L111 421 L109 424 L107 428 L105 424 L103 421 L102 424 L98 424 L97 424 " stroke = "#008000" stroke-width = "6" fill = "none" />    <line x1="97" y1="424" x2="81" y2="424" style="stroke:#008000;stroke-width:6" />
    <line x1="81" y1="300" x2="50" y2="300" style="stroke:#008000;stroke-width:6" />
    <line x1="81" y1="362" x2="50" y2="362" style="stroke:#008000;stroke-width:6" />
    <line x1="81" y1="424" x2="50" y2="424" style="stroke:#008000;stroke-width:6" />
    <line x1="81" y1="393" x2="50" y2="393" style="stroke:#008000;stroke-width:6" />
    <line x1="143" y1="300" x2="143" y2="269" style="stroke:#008000;stroke-width:6" />
    <line x1="143" y1="300" x2="174" y2="300" style="stroke:#008000;stroke-width:6" />
<circle cx="143" cy = "300" r = "6" stroke = "#008000" stroke-width = "6" fill = "#008000" />
    <line x1="143" y1="362" x2="174" y2="362" style="stroke:#008000;stroke-width:6" />
    <line x1="143" y1="393" x2="174" y2="393" style="stroke:#008000;stroke-width:6" />
    <line x1="143" y1="424" x2="174" y2="424" style="stroke:#008000;stroke-width:6" />
    <line x1="112" y1="300" x2="112" y2="285" style="stroke:#008000;stroke-width:6" />
  <path d="M96.6595372079103 269.0326133023619           A15.523033076478878 15.523033076478878 0 0 1 112.18257028438921 284.5556463788408" fill = "none" stroke = "#008000" stroke-width = "6" />
    <line x1="97" y1="269" x2="66" y2="269" style="stroke:#008000;stroke-width:6" />
    <line x1="66" y1="269" x2="50" y2="269" style="stroke:#008000;stroke-width:6" />
    <line x1="50" y1="238" x2="81" y2="238" style="stroke:#008000;stroke-width:6" />
    <line x1="81" y1="238" x2="112" y2="238" style="stroke:#008000;stroke-width:6" />
  <path d="M112.18257028438913 237.98654714940417           A31.046066152957756 31.046066152957756 0 0 1 143.22863643734695 269.03261330236194" fill = "none" stroke = "#008000" stroke-width = "6" />
    <line x1="81" y1="517" x2="82" y2="517" style="stroke:#0000ff;stroke-width:6" />
	<path d = "M82 517 L84 517 L86 514 L88 517 L90 521 L92 517 L94 514 L96 517 L98 521 L100 517 L102 514 L103 517 L105 521 L107 517 L111 517 L112 517 " stroke = "#0000ff" stroke-width = "6" fill = "none" />    <line x1="112" y1="517" x2="113" y2="517" style="stroke:#0000ff;stroke-width:6" />
	<path d = "M113 517 L115 517 L117 514 L119 517 L121 521 L123 517 L125 514 L127 517 L129 521 L131 517 L133 514 L134 517 L136 521 L138 517 L142 517 L143 517 " stroke = "#0000ff" stroke-width = "6" fill = "none" />    <line x1="112" y1="517" x2="112" y2="518" style="stroke:#0000ff;stroke-width:6" />
	<path d = "M112 518 L112 520 L116 522 L112 524 L109 526 L112 528 L116 530 L112 532 L109 534 L112 536 L116 538 L112 540 L109 542 L112 544 L112 547 L112 548 " stroke = "#0000ff" stroke-width = "6" fill = "none" />    <line x1="112" y1="548" x2="112" y2="549" style="stroke:#0000ff;stroke-width:6" />
	<path d = "M112 549 L112 551 L116 553 L112 555 L109 557 L112 559 L116 561 L112 563 L109 565 L112 567 L116 569 L112 571 L109 573 L112 575 L112 579 L112 579 " stroke = "#0000ff" stroke-width = "6" fill = "none" />    <line x1="112" y1="579" x2="111" y2="579" style="stroke:#0000ff;stroke-width:6" />
	<path d = "M111 579 L109 579 L107 583 L105 579 L103 576 L102 579 L100 583 L98 579 L96 576 L94 579 L92 583 L90 579 L88 576 L86 579 L82 579 L81 579 " stroke = "#0000ff" stroke-width = "6" fill = "none" />    <line x1="112" y1="579" x2="113" y2="579" style="stroke:#0000ff;stroke-width:6" />
	<path d = "M113 579 L115 579 L117 576 L119 579 L121 583 L123 579 L125 576 L127 579 L129 583 L131 579 L133 576 L134 579 L136 583 L138 579 L142 579 L143 579 " stroke = "#0000ff" stroke-width = "6" fill = "none" /><circle cx="112" cy = "579" r = "6" stroke = "#0000ff" stroke-width = "6" fill = "#0000ff" />
<circle cx="112" cy = "517" r = "6" stroke = "#0000ff" stroke-width = "6" fill = "#0000ff" />
<circle cx="112" cy = "548" r = "6" stroke = "#0000ff" stroke-width = "6" fill = "#0000ff" />
    <line x1="112" y1="548" x2="128" y2="548" style="stroke:#0000ff;stroke-width:6" />
    <line x1="128" y1="556" x2="128" y2="541" style="stroke:#0000ff;stroke-width:6" />
    <line x1="132" y1="552" x2="132" y2="545" style="stroke:#0000ff;stroke-width:6" />
    <line x1="81" y1="611" x2="97" y2="611" style="stroke:#0000ff;stroke-width:6" />
    <line x1="97" y1="611" x2="98" y2="611" style="stroke:#0000ff;stroke-width:6" />
	<path d = "M98 611 L100 611 L102 607 L103 611 L105 614 L107 611 L109 607 L111 611 L113 614 L115 611 L117 607 L119 611 L121 614 L123 611 L127 611 L128 611 " stroke = "#0000ff" stroke-width = "6" fill = "none" />    <line x1="128" y1="611" x2="143" y2="611" style="stroke:#0000ff;stroke-width:6" />
    <line x1="143" y1="642" x2="128" y2="642" style="stroke:#0000ff;stroke-width:6" />
    <line x1="128" y1="642" x2="127" y2="642" style="stroke:#0000ff;stroke-width:6" />
	<path d = "M127 642 L125 642 L123 645 L121 642 L119 638 L117 642 L115 645 L113 642 L111 638 L109 642 L107 645 L105 642 L103 638 L102 642 L98 642 L97 642 " stroke = "#0000ff" stroke-width = "6" fill = "none" />    <line x1="97" y1="642" x2="81" y2="642" style="stroke:#0000ff;stroke-width:6" />
    <line x1="81" y1="517" x2="50" y2="517" style="stroke:#0000ff;stroke-width:6" />
    <line x1="81" y1="579" x2="50" y2="579" style="stroke:#0000ff;stroke-width:6" />
    <line x1="81" y1="642" x2="50" y2="642" style="stroke:#0000ff;stroke-width:6" />
    <line x1="81" y1="611" x2="50" y2="611" style="stroke:#0000ff;stroke-width:6" />
    <line x1="143" y1="517" x2="143" y2="486" style="stroke:#0000ff;stroke-width:6" />
    <line x1="143" y1="517" x2="174" y2="517" style="stroke:#0000ff;stroke-width:6" />
<circle cx="143" cy = "517" r = "6" stroke = "#0000ff" stroke-width = "6" fill = "#0000ff" />
    <line x1="143" y1="579" x2="174" y2="579" style="stroke:#0000ff;stroke-width:6" />
    <line x1="143" y1="611" x2="174" y2="611" style="stroke:#0000ff;stroke-width:6" />
    <line x1="143" y1="642" x2="174" y2="642" style="stroke:#0000ff;stroke-width:6" />
    <line x1="112" y1="517" x2="112" y2="502" style="stroke:#0000ff;stroke-width:6" />
  <path d="M96.6595372079104 486.3550763730663           A15.523033076478878 15.523033076478878 0 0 1 112.18257028438933 501.8781094495452" fill = "none" stroke = "#0000ff" stroke-width = "6" />
    <line x1="97" y1="486" x2="66" y2="486" style="stroke:#0000ff;stroke-width:6" />
    <line x1="66" y1="486" x2="50" y2="486" style="stroke:#0000ff;stroke-width:6" />
    <line x1="50" y1="455" x2="81" y2="455" style="stroke:#0000ff;stroke-width:6" />
    <line x1="81" y1="455" x2="112" y2="455" style="stroke:#0000ff;stroke-width:6" />
  <path d="M112.18257028438919 455.3090102201087           A31.046066152957756 31.046066152957756 0 0 1 143.228636437347 486.3550763730664" fill = "none" stroke = "#0000ff" stroke-width = "6" />
    <line x1="236" y1="362" x2="267" y2="362" style="stroke:#008000;stroke-width:6" />
    <line x1="267" y1="362" x2="267" y2="331" style="stroke:#008000;stroke-width:6" />
    <line x1="267" y1="331" x2="267" y2="300" style="stroke:#008000;stroke-width:6" />
    <line x1="267" y1="300" x2="267" y2="285" style="stroke:#008000;stroke-width:6" />
    <line x1="267" y1="285" x2="298" y2="285" style="stroke:#008000;stroke-width:6" />
    <line x1="298" y1="285" x2="330" y2="285" style="stroke:#008000;stroke-width:6" />
    <line x1="330" y1="285" x2="330" y2="316" style="stroke:#008000;stroke-width:6" />
    <line x1="330" y1="316" x2="330" y2="347" style="stroke:#008000;stroke-width:6" />
    <line x1="330" y1="347" x2="330" y2="378" style="stroke:#008000;stroke-width:6" />
    <line x1="330" y1="378" x2="330" y2="409" style="stroke:#008000;stroke-width:6" />
    <line x1="330" y1="409" x2="330" y2="440" style="stroke:#008000;stroke-width:6" />
    <line x1="330" y1="440" x2="298" y2="440" style="stroke:#008000;stroke-width:6" />
    <line x1="298" y1="440" x2="267" y2="440" style="stroke:#008000;stroke-width:6" />
    <line x1="267" y1="440" x2="267" y2="409" style="stroke:#008000;stroke-width:6" />
    <line x1="267" y1="409" x2="267" y2="378" style="stroke:#008000;stroke-width:6" />
    <line x1="267" y1="378" x2="267" y2="362" style="stroke:#008000;stroke-width:6" />
    <line x1="267" y1="300" x2="236" y2="300" style="stroke:#008000;stroke-width:6" />
    <line x1="267" y1="393" x2="236" y2="393" style="stroke:#008000;stroke-width:6" />
    <line x1="267" y1="424" x2="236" y2="424" style="stroke:#008000;stroke-width:6" />
<path    d = "M283,362 C298,362 303,367 314,378" fill = "none" stroke-width = "6" stroke = "#008000" />    <line x1="330" y1="362" x2="361" y2="362" style="stroke:#008000;stroke-width:6" />
    <line x1="330" y1="300" x2="361" y2="300" style="stroke:#008000;stroke-width:6" />
    <line x1="330" y1="393" x2="361" y2="393" style="stroke:#008000;stroke-width:6" />
    <line x1="330" y1="424" x2="361" y2="424" style="stroke:#008000;stroke-width:6" />
    <line x1="423" y1="362" x2="454" y2="362" style="stroke:#008000;stroke-width:6" />
	<path d = "M485 378 L485 347 L454 347 L454 378 L485 378 Z" stroke = "#008000" stroke-width = "6" fill = "none" />	<path d = "M485 316 L485 285 L454 285 L454 316 L485 316 Z" stroke = "#008000" stroke-width = "6" fill = "none" />	<path d = "M632 393 L632 269 L508 269 L508 393 L632 393 Z" stroke = "#008000" stroke-width = "6" fill = "none" />	<path d = "M555 316 L555 285 L524 285 L524 316 L555 316 Z" stroke = "#008000" stroke-width = "6" fill = "none" />	<path d = "M555 378 L555 347 L524 347 L524 378 L555 378 Z" stroke = "#008000" stroke-width = "6" fill = "none" /><path    d = "M469,362 C491,340 509,340 531,362" fill = "none" stroke-width = "6" stroke = "#008000" /><path    d = "M469,300 C491,278 509,278 531,300" fill = "none" stroke-width = "6" stroke = "#008000" />    <line x1="454" y1="300" x2="423" y2="300" style="stroke:#008000;stroke-width:6" />
    <line x1="423" y1="362" x2="361" y2="362" style="stroke:#008000;stroke-width:6" />
    <line x1="423" y1="300" x2="361" y2="300" style="stroke:#008000;stroke-width:6" />
  <path d="M382.50398341397386 384.1236956671599           A31.046066152957756 31.046066152957756 0 0 1 360.55109950805127 393.21687791419515" fill = "none" stroke = "#008000" stroke-width = "6" />
  <path d="M389.2339245917603 374.0516269180848           A31.046066152957756 31.046066152957756 0 0 1 382.50398341397386 384.1236956671599" fill = "none" stroke = "#008000" stroke-width = "6" />
    <line x1="392" y1="354" x2="392" y2="323" style="stroke:#008000;stroke-width:6" />
    <line x1="392" y1="323" x2="392" y2="308" style="stroke:#008000;stroke-width:6" />
    <line x1="392" y1="308" x2="392" y2="300" style="stroke:#008000;stroke-width:6" />
<circle cx="392" cy = "300" r = "6" stroke = "#008000" stroke-width = "6" fill = "#008000" />
    <line x1="361" y1="424" x2="392" y2="424" style="stroke:#008000;stroke-width:6" />
  <path d="M422.6432318139668 393.21687791419475           A31.046066152957756 31.046066152957756 0 0 1 391.5971656610093 424.2629440671527" fill = "none" stroke = "#008000" stroke-width = "6" />
    <line x1="423" y1="393" x2="423" y2="362" style="stroke:#008000;stroke-width:6" />
<circle cx="423" cy = "362" r = "6" stroke = "#008000" stroke-width = "6" fill = "#008000" />
    <line x1="236" y1="145" x2="267" y2="145" style="stroke:#ff0000;stroke-width:6" />
    <line x1="267" y1="145" x2="267" y2="114" style="stroke:#ff0000;stroke-width:6" />
    <line x1="267" y1="114" x2="267" y2="83" style="stroke:#ff0000;stroke-width:6" />
    <line x1="267" y1="83" x2="267" y2="67" style="stroke:#ff0000;stroke-width:6" />
    <line x1="267" y1="67" x2="298" y2="67" style="stroke:#ff0000;stroke-width:6" />
    <line x1="298" y1="67" x2="330" y2="67" style="stroke:#ff0000;stroke-width:6" />
    <line x1="330" y1="67" x2="330" y2="98" style="stroke:#ff0000;stroke-width:6" />
    <line x1="330" y1="98" x2="330" y2="129" style="stroke:#ff0000;stroke-width:6" />
    <line x1="330" y1="129" x2="330" y2="160" style="stroke:#ff0000;stroke-width:6" />
    <line x1="330" y1="160" x2="330" y2="191" style="stroke:#ff0000;stroke-width:6" />
    <line x1="330" y1="191" x2="330" y2="222" style="stroke:#ff0000;stroke-width:6" />
    <line x1="330" y1="222" x2="298" y2="222" style="stroke:#ff0000;stroke-width:6" />
    <line x1="298" y1="222" x2="267" y2="222" style="stroke:#ff0000;stroke-width:6" />
    <line x1="267" y1="222" x2="267" y2="191" style="stroke:#ff0000;stroke-width:6" />
    <line x1="267" y1="191" x2="267" y2="160" style="stroke:#ff0000;stroke-width:6" />
    <line x1="267" y1="160" x2="267" y2="145" style="stroke:#ff0000;stroke-width:6" />
    <line x1="267" y1="83" x2="236" y2="83" style="stroke:#ff0000;stroke-width:6" />
    <line x1="267" y1="176" x2="236" y2="176" style="stroke:#ff0000;stroke-width:6" />
    <line x1="267" y1="207" x2="236" y2="207" style="stroke:#ff0000;stroke-width:6" />
<path    d = "M283,145 C298,145 303,149 314,160" fill = "none" stroke-width = "6" stroke = "#ff0000" />    <line x1="330" y1="145" x2="361" y2="145" style="stroke:#ff0000;stroke-width:6" />
    <line x1="330" y1="83" x2="361" y2="83" style="stroke:#ff0000;stroke-width:6" />
    <line x1="330" y1="176" x2="361" y2="176" style="stroke:#ff0000;stroke-width:6" />
    <line x1="330" y1="207" x2="361" y2="207" style="stroke:#ff0000;stroke-width:6" />
    <line x1="423" y1="145" x2="454" y2="145" style="stroke:#ff0000;stroke-width:6" />
	<path d = "M485 160 L485 129 L454 129 L454 160 L485 160 Z" stroke = "#ff0000" stroke-width = "6" fill = "none" />	<path d = "M485 98 L485 67 L454 67 L454 98 L485 98 Z" stroke = "#ff0000" stroke-width = "6" fill = "none" />	<path d = "M632 176 L632 52 L508 52 L508 176 L632 176 Z" stroke = "#ff0000" stroke-width = "6" fill = "none" />	<path d = "M555 98 L555 67 L524 67 L524 98 L555 98 Z" stroke = "#ff0000" stroke-width = "6" fill = "none" />	<path d = "M555 160 L555 129 L524 129 L524 160 L555 160 Z" stroke = "#ff0000" stroke-width = "6" fill = "none" /><path    d = "M469,145 C491,123 509,123 531,145" fill = "none" stroke-width = "6" stroke = "#ff0000" /><path    d = "M469,83 C491,61 509,61 531,83" fill = "none" stroke-width = "6" stroke = "#ff0000" />    <line x1="454" y1="83" x2="423" y2="83" style="stroke:#ff0000;stroke-width:6" />
    <line x1="423" y1="145" x2="361" y2="145" style="stroke:#ff0000;stroke-width:6" />
    <line x1="423" y1="83" x2="361" y2="83" style="stroke:#ff0000;stroke-width:6" />
  <path d="M382.5039834139732 166.80123259645825           A31.046066152957756 31.046066152957756 0 0 1 360.55109950805087 175.89441484349385" fill = "none" stroke = "#ff0000" stroke-width = "6" />
  <path d="M389.2339245917595 156.7291638473831           A31.046066152957756 31.046066152957756 0 0 1 382.5039834139732 166.80123259645825" fill = "none" stroke = "#ff0000" stroke-width = "6" />
    <line x1="392" y1="137" x2="392" y2="106" style="stroke:#ff0000;stroke-width:6" />
    <line x1="392" y1="106" x2="392" y2="91" style="stroke:#ff0000;stroke-width:6" />
    <line x1="392" y1="91" x2="392" y2="83" style="stroke:#ff0000;stroke-width:6" />
<circle cx="392" cy = "83" r = "6" stroke = "#ff0000" stroke-width = "6" fill = "#ff0000" />
    <line x1="361" y1="207" x2="392" y2="207" style="stroke:#ff0000;stroke-width:6" />
  <path d="M422.6432318139661 175.8944148434929           A31.046066152957756 31.046066152957756 0 0 1 391.5971656610087 206.94048099645107" fill = "none" stroke = "#ff0000" stroke-width = "6" />
    <line x1="423" y1="176" x2="423" y2="145" style="stroke:#ff0000;stroke-width:6" />
<circle cx="423" cy = "145" r = "6" stroke = "#ff0000" stroke-width = "6" fill = "#ff0000" />
    <line x1="236" y1="579" x2="267" y2="579" style="stroke:#0000ff;stroke-width:6" />
    <line x1="267" y1="579" x2="267" y2="548" style="stroke:#0000ff;stroke-width:6" />
    <line x1="267" y1="548" x2="267" y2="517" style="stroke:#0000ff;stroke-width:6" />
    <line x1="267" y1="517" x2="267" y2="502" style="stroke:#0000ff;stroke-width:6" />
    <line x1="267" y1="502" x2="298" y2="502" style="stroke:#0000ff;stroke-width:6" />
    <line x1="298" y1="502" x2="330" y2="502" style="stroke:#0000ff;stroke-width:6" />
    <line x1="330" y1="502" x2="330" y2="533" style="stroke:#0000ff;stroke-width:6" />
    <line x1="330" y1="533" x2="330" y2="564" style="stroke:#0000ff;stroke-width:6" />
    <line x1="330" y1="564" x2="330" y2="595" style="stroke:#0000ff;stroke-width:6" />
    <line x1="330" y1="595" x2="330" y2="626" style="stroke:#0000ff;stroke-width:6" />
    <line x1="330" y1="626" x2="330" y2="657" style="stroke:#0000ff;stroke-width:6" />
    <line x1="330" y1="657" x2="298" y2="657" style="stroke:#0000ff;stroke-width:6" />
    <line x1="298" y1="657" x2="267" y2="657" style="stroke:#0000ff;stroke-width:6" />
    <line x1="267" y1="657" x2="267" y2="626" style="stroke:#0000ff;stroke-width:6" />
    <line x1="267" y1="626" x2="267" y2="595" style="stroke:#0000ff;stroke-width:6" />
    <line x1="267" y1="595" x2="267" y2="579" style="stroke:#0000ff;stroke-width:6" />
    <line x1="267" y1="517" x2="236" y2="517" style="stroke:#0000ff;stroke-width:6" />
    <line x1="267" y1="611" x2="236" y2="611" style="stroke:#0000ff;stroke-width:6" />
    <line x1="267" y1="642" x2="236" y2="642" style="stroke:#0000ff;stroke-width:6" />
<path    d = "M283,579 C298,579 303,584 314,595" fill = "none" stroke-width = "6" stroke = "#0000ff" />    <line x1="330" y1="579" x2="361" y2="579" style="stroke:#0000ff;stroke-width:6" />
    <line x1="330" y1="517" x2="361" y2="517" style="stroke:#0000ff;stroke-width:6" />
    <line x1="330" y1="611" x2="361" y2="611" style="stroke:#0000ff;stroke-width:6" />
    <line x1="330" y1="642" x2="361" y2="642" style="stroke:#0000ff;stroke-width:6" />
    <line x1="423" y1="579" x2="454" y2="579" style="stroke:#0000ff;stroke-width:6" />
	<path d = "M485 595 L485 564 L454 564 L454 595 L485 595 Z" stroke = "#0000ff" stroke-width = "6" fill = "none" />	<path d = "M485 533 L485 502 L454 502 L454 533 L485 533 Z" stroke = "#0000ff" stroke-width = "6" fill = "none" />	<path d = "M632 611 L632 486 L508 486 L508 611 L632 611 Z" stroke = "#0000ff" stroke-width = "6" fill = "none" />	<path d = "M555 533 L555 502 L524 502 L524 533 L555 533 Z" stroke = "#0000ff" stroke-width = "6" fill = "none" />	<path d = "M555 595 L555 564 L524 564 L524 595 L555 595 Z" stroke = "#0000ff" stroke-width = "6" fill = "none" /><path    d = "M469,579 C491,558 509,558 531,579" fill = "none" stroke-width = "6" stroke = "#0000ff" /><path    d = "M469,517 C491,495 509,495 531,517" fill = "none" stroke-width = "6" stroke = "#0000ff" />    <line x1="454" y1="517" x2="423" y2="517" style="stroke:#0000ff;stroke-width:6" />
    <line x1="423" y1="579" x2="361" y2="579" style="stroke:#0000ff;stroke-width:6" />
    <line x1="423" y1="517" x2="361" y2="517" style="stroke:#0000ff;stroke-width:6" />
  <path d="M382.50398341397823 601.4461587378729           A31.046066152957756 31.046066152957756 0 0 1 360.551099508056 610.5393409849088" fill = "none" stroke = "#0000ff" stroke-width = "6" />
  <path d="M389.23392459176443 591.3740899887978           A31.046066152957756 31.046066152957756 0 0 1 382.50398341397823 601.4461587378729" fill = "none" stroke = "#0000ff" stroke-width = "6" />
    <line x1="392" y1="572" x2="392" y2="541" style="stroke:#0000ff;stroke-width:6" />
    <line x1="392" y1="541" x2="392" y2="525" style="stroke:#0000ff;stroke-width:6" />
    <line x1="392" y1="525" x2="392" y2="517" style="stroke:#0000ff;stroke-width:6" />
<circle cx="392" cy = "517" r = "6" stroke = "#0000ff" stroke-width = "6" fill = "#0000ff" />
    <line x1="361" y1="642" x2="392" y2="642" style="stroke:#0000ff;stroke-width:6" />
  <path d="M422.6432318139711 610.5393409849073           A31.046066152957756 31.046066152957756 0 0 1 391.5971656610141 641.5854071378657" fill = "none" stroke = "#0000ff" stroke-width = "6" />
    <line x1="423" y1="611" x2="423" y2="579" style="stroke:#0000ff;stroke-width:6" />
<circle cx="423" cy = "579" r = "6" stroke = "#0000ff" stroke-width = "6" fill = "#0000ff" />
</svg>