<svg width="600" height="350" viewbox = "0 0 600 350"  xmlns="http://www.w3.org/2000/svg">
<!--<json>{
  "glyph": "0335,0321,0220,0335,0222,0335,0335,0223,0330,0340,0335,0220,0220,0220,0220,0331,0331,0331,0340,0335,0222,0335,0335,0223,0330,0335,0330,0340,0335,0222,0335,0335,0223,0330,0335,0330,0340,0335,0222,0335,0335,0223,0330,0333,0335,0340,0335,0222,0335,0335,0223,0330,0332,0332,0332,0332,0332,0335,0335,0222,0335,0335,0223,0330,0340,0334,0342,0335,0335,0330,0330,0330,0330,0330,0342,0331,0331,0331,0331,0331,0331,0334,0334,0236,0335,0335,0330,0330,0330,0330,0330,0330,0330,0236,0334,0331,0331,0331,0332,0332,0332,0332,0332,0331,0332,0336,0330,",
  "x0": 137.1900826446281,
  "y0": 129.95867768595036,
  "unit": 60.50000000000002,
  "width": 600,
  "height": 350,
  "style": {
    "color0": "black",
    "fill0": "black",
    "line0": 1,
    "color1": "black",
    "fill1": "black",
    "line1": 5,
    "color2": "red",
    "fill2": "red",
    "line2": 6,
    "color3": "red",
    "fill3": "#ff000040",
    "line3": 1,
    "color4": "yellow",
    "fill4": "yellow",
    "line4": 1,
    "color5": "blue",
    "fill5": "#0000ff40",
    "line5": 1,
    "color6": "blue",
    "fill6": "blue",
    "line6": 6,
    "color7": "purple",
    "fill7": "purple",
    "line7": 3
  },
  "shapes": [
    "0220:0336,0336,0336,0336,0336,0201,0337,0362,0203,0306,0334,0337,0203,0335,0335,0203,0203,0334,0334,0203,0203,0335,0335,0203,0203,0334,0334,0203,0203,0335,0335,0203,0203,0334,0334,0203,0335,0203,0336,0336,0203,0364,0304,0337,0337,0337,0337,0337,",
    "0221:0336,0314,0336,0313,0337,0237,0237,0237,0237,0337,0314,0337,0313,0336,",
    "0222:0336,0336,0362,0203,0336,0203,0334,0364,0337,0342,0335,0335,0342,0332,0342,0335,0335,0342,0335,0336,0362,0203,0337,0203,0335,0364,0335,0337,0337,0335,0335,",
    "0223:0336,0331,0342,0337,0304,0336,0336,0335,0310,0362,0203,0335,0350,0335,0337,0203,0335,0335,0203,0335,0335,0335,0336,0203,0354,0304,0334,0313,0337,0337,0304,0336,0330,0337,",
    "0224:0334,0236,0332,0236,0335,0330,",
    "0225:0335,0222,0331,0333,0201,0332,0334,",
    "0226:0335,0342,0336,0330,0335,0337,0234,0222,0335,0335,0234,0335,0336,0331,0337,0342,0334,0330,0333,",
    "0227:0335,0220,0331,0333,0201,0334,0330,",
    "0230:0335,0201,0336,0331,0335,0337,0234,0220,0234,0334,0336,0331,0337,0342,0334,0333,0330,",
    "0231:0335,0330,0334,0334,0221,0335,0331,0335,0201,0332,0334,",
    "0232:0335,0342,0336,0330,0335,0337,0234,0221,0335,0234,0335,0335,0336,0331,0337,0342,0334,0330,0333,",
    "0233:0335,0236,0333,0236,0334,0330,",
    "0234:0336,0336,0336,0336,0347,0337,0337,0337,0337,",
    "0235:0336,0366,0330,0333,0333,0336,0331,0337,0367,0335,0335,0366,0331,0333,0333,0367,0335,0335,0337,",
    "0236:0336,0201,0336,0336,0330,0341,0331,0337,0337,0331,0337,",
    "0237:0336,0366,0330,0333,0333,0336,0331,0337,0367,0335,0335,0366,0331,0333,0333,0367,0335,0335,0337,",
    "01220:0333,0200,0336,0332,0337,0220,0336,0333,0337,0331,",
    "01221:0333,0200,0336,0332,0337,0336,0336,0336,0332,0337,0337,0337,0221,0331,0336,0333,0336,0336,0333,0337,0337,0337,",
    "01222:0333,0200,0336,0332,0337,0222,0336,0333,0337,0331,",
    "01223:0333,0200,0336,0332,0337,0330,0223,0331,0336,0333,0337,",
    "01224:0333,0200,0336,0330,0332,0336,0330,0337,0224,0331,0336,0333,0331,0333,0337,0337,",
    "01225:0333,0200,0336,0330,0332,0336,0330,0332,0337,0225,0336,0333,0330,0337,0337,0331,",
    "01226:0333,0200,0336,0330,0332,0336,0330,0332,0337,0226,0336,0333,0330,0337,0331,0331,0337,",
    "01227:0333,0200,0336,0330,0332,0336,0330,0332,0337,0227,0336,0333,0330,0337,0331,0331,0337,",
    "01230:0333,0200,0336,0330,0332,0336,0330,0332,0337,0230,0336,0333,0330,0337,0337,0331,",
    "01231:0333,0200,0336,0330,0332,0336,0330,0332,0337,0231,0331,0336,0331,0333,0337,0337,",
    "01232:0333,0200,0336,0330,0332,0336,0330,0332,0337,0232,0336,0333,0330,0337,0337,0331,",
    "01233:0333,0200,0336,0330,0332,0336,0330,0332,0337,0233,0333,0336,0333,0330,0337,0337,0331,",
    "01234:0333,0200,0336,0330,0332,0234,0342,0335,0342,0335,0342,0335,0342,0335,0331,0333,0337,",
    "01235:0333,0200,0336,0330,0332,0336,0332,0330,0337,0235,0331,0336,0333,0331,0337,0337,",
    "01236:0333,0200,0336,0330,0332,0236,0331,0333,0337,",
    "01237:0333,0200,0336,0330,0332,0336,0331,0332,0332,0337,0337,0237,0331,0333,",
    "0240:0220,0336,0331,0333,0336,0321,0335,0342,0335,0335,0342,0335,0330,0330,0332,0332,0337,0337,",
    "01240:0333,0200,0336,0330,0332,0210,0240,0211,0333,0331,0337,",
    "0241:0220,0336,0321,0343,0332,0350,0335,0336,0342,0334,0334,0342,0335,0304,0337,0333,0337,",
    "01241:0333,0200,0336,0332,0330,0210,0241,0211,0333,0331,0337,",
    "0242:0220,0321,0336,0343,0333,0336,0350,0335,0342,0334,0334,0342,0335,0337,0304,0332,0337,",
    "01242:0333,0200,0336,0330,0332,0210,0242,0211,0333,0331,0337,",
    "0243:0220,0336,0331,0332,0336,0321,0343,0332,0350,0334,0336,0342,0335,0335,0342,0337,0334,0334,0335,0304,0332,0330,0330,0337,0337,0333,",
    "01243:0333,0200,0336,0330,0332,0210,0243,0211,0333,0331,0337,",
    "0244:0220,0336,0331,0333,0336,0321,0343,0333,0350,0336,0335,0342,0334,0334,0342,0335,0337,0304,0333,0330,0330,0337,0337,0332,",
    "01244:0333,0200,0336,0330,0332,0210,0244,0211,0333,0331,0337,",
    "0245:0210,0332,0332,0362,0335,0203,0203,0203,0203,0334,0203,0363,0332,0332,0331,0211,",
    "01245:0333,0200,0336,0330,0332,0336,0245,0337,0333,0331,0337,",
    "0246:0210,0332,0332,0335,0306,0336,0330,0335,0335,0335,0321,0362,0203,0335,0335,0203,0364,0331,0350,0335,0337,0366,0333,0333,0333,0333,0334,0334,0334,0334,0367,0335,0336,0342,0334,0334,0342,0330,0330,0330,0330,0335,0335,0335,0304,0337,0211,",
    "01246:0333,0200,0336,0330,0332,0336,0246,",
    "0247:0330,0332,0336,0332,0336,0221,0333,0333,0333,0222,0333,0333,0333,0223,0333,0333,0333,0225,0333,0331,0331,0331,0332,0332,0332,0332,0332,0332,0332,0332,0332,0332,0332,0332,0333,0333,0226,0331,0331,0331,0333,0333,0333,0333,0333,0333,0333,0333,0333,0333,0333,0333,0333,0330,0333,0330,0330,0333,0330,0331,0332,0332,0332,0332,0332,0332,0332,0332,0332,0332,0332,0332,0227,0333,0333,0333,0230,0333,0331,0331,0331,0331,0332,0332,0332,0330,0332,0332,0332,0332,0332,0332,0333,0333,0231,0333,0333,0333,0232,0331,0333,0330,0333,0333,0233,0333,0333,0333,0234,0330,0330,0332,0330,0332,0332,0337,0337,",
    "01247:0333,0200,0336,0330,0332,0220,0336,0247,0337,0331,0333,0337,"
  ]
}</json>-->    <line x1="137" y1="130" x2="139" y2="130" style="stroke:#000000;stroke-width:5" />
	<path d = "M139 130 L143 130 L147 123 L150 130 L154 137 L158 130 L162 123 L166 130 L169 137 L173 130 L177 123 L181 130 L184 137 L188 130 L196 130 L198 130 " stroke = "#000000" stroke-width = "5" fill = "none" />	<path d = "M198 130 L198 145 L198 153 " stroke = "#000000" stroke-width = "5" fill = "none" />    <line x1="198" y1="153" x2="213" y2="153" style="stroke:#000000;stroke-width:5" />
    <line x1="198" y1="153" x2="183" y2="153" style="stroke:#000000;stroke-width:5" />
    <line x1="198" y1="168" x2="183" y2="168" style="stroke:#000000;stroke-width:5" />
    <line x1="198" y1="168" x2="213" y2="168" style="stroke:#000000;stroke-width:5" />
	<path d = "M198 168 L198 175 L198 190 " stroke = "#000000" stroke-width = "5" fill = "none" />    <line x1="198" y1="221" x2="198" y2="190" style="stroke:#000000;stroke-width:5" />
	<path d = "M198 221 L213 221 L198 236 L183 221 L198 221 Z" stroke = "#000000" stroke-width = "5" fill = "none" /><circle cx="198" cy = "130" r = "5" stroke = "#000000" stroke-width = "5" fill = "#000000" />
    <line x1="198" y1="130" x2="200" y2="130" style="stroke:#000000;stroke-width:5" />
	<path d = "M200 130 L203 130 L207 123 L211 130 L215 137 L218 130 L222 123 L226 130 L230 137 L234 130 L237 123 L241 130 L245 137 L249 130 L256 130 L258 130 " stroke = "#000000" stroke-width = "5" fill = "none" />    <line x1="258" y1="130" x2="260" y2="130" style="stroke:#000000;stroke-width:5" />
	<path d = "M260 130 L264 130 L268 123 L271 130 L275 137 L279 130 L283 123 L287 130 L290 137 L294 130 L298 123 L302 130 L305 137 L309 130 L317 130 L319 130 " stroke = "#000000" stroke-width = "5" fill = "none" />    <line x1="319" y1="130" x2="321" y2="130" style="stroke:#000000;stroke-width:5" />
	<path d = "M321 130 L324 130 L328 123 L332 130 L336 137 L339 130 L343 123 L347 130 L351 137 L355 130 L358 123 L362 130 L366 137 L370 130 L377 130 L379 130 " stroke = "#000000" stroke-width = "5" fill = "none" />    <line x1="379" y1="130" x2="381" y2="130" style="stroke:#000000;stroke-width:5" />
	<path d = "M381 130 L385 130 L389 123 L392 130 L396 137 L400 130 L404 123 L408 130 L411 137 L415 130 L419 123 L423 130 L426 137 L430 130 L438 130 L440 130 " stroke = "#000000" stroke-width = "5" fill = "none" /><circle cx="258" cy = "130" r = "5" stroke = "#000000" stroke-width = "5" fill = "#000000" />
	<path d = "M258 130 L258 145 L258 153 " stroke = "#000000" stroke-width = "5" fill = "none" />    <line x1="258" y1="153" x2="273" y2="153" style="stroke:#000000;stroke-width:5" />
    <line x1="258" y1="153" x2="243" y2="153" style="stroke:#000000;stroke-width:5" />
    <line x1="258" y1="168" x2="243" y2="168" style="stroke:#000000;stroke-width:5" />
    <line x1="258" y1="168" x2="273" y2="168" style="stroke:#000000;stroke-width:5" />
	<path d = "M258 168 L258 175 L258 190 " stroke = "#000000" stroke-width = "5" fill = "none" />    <line x1="258" y1="221" x2="258" y2="190" style="stroke:#000000;stroke-width:5" />
	<path d = "M258 221 L273 221 L258 236 L243 221 L258 221 Z" stroke = "#000000" stroke-width = "5" fill = "none" /><circle cx="319" cy = "130" r = "5" stroke = "#000000" stroke-width = "5" fill = "#000000" />
	<path d = "M319 130 L319 145 L319 153 " stroke = "#000000" stroke-width = "5" fill = "none" />    <line x1="319" y1="153" x2="334" y2="153" style="stroke:#000000;stroke-width:5" />
    <line x1="319" y1="153" x2="304" y2="153" style="stroke:#000000;stroke-width:5" />
    <line x1="319" y1="168" x2="304" y2="168" style="stroke:#000000;stroke-width:5" />
    <line x1="319" y1="168" x2="334" y2="168" style="stroke:#000000;stroke-width:5" />
	<path d = "M319 168 L319 175 L319 190 " stroke = "#000000" stroke-width = "5" fill = "none" />    <line x1="319" y1="221" x2="319" y2="190" style="stroke:#000000;stroke-width:5" />
	<path d = "M319 221 L334 221 L319 236 L304 221 L319 221 Z" stroke = "#000000" stroke-width = "5" fill = "none" /><circle cx="379" cy = "130" r = "5" stroke = "#000000" stroke-width = "5" fill = "#000000" />
	<path d = "M379 130 L379 145 L379 153 " stroke = "#000000" stroke-width = "5" fill = "none" />    <line x1="379" y1="153" x2="394" y2="153" style="stroke:#000000;stroke-width:5" />
    <line x1="379" y1="153" x2="364" y2="153" style="stroke:#000000;stroke-width:5" />
    <line x1="379" y1="168" x2="364" y2="168" style="stroke:#000000;stroke-width:5" />
    <line x1="379" y1="168" x2="394" y2="168" style="stroke:#000000;stroke-width:5" />
	<path d = "M379 168 L379 175 L379 190 " stroke = "#000000" stroke-width = "5" fill = "none" />    <line x1="379" y1="221" x2="379" y2="190" style="stroke:#000000;stroke-width:5" />
	<path d = "M379 221 L394 221 L379 236 L364 221 L379 221 Z" stroke = "#000000" stroke-width = "5" fill = "none" /><circle cx="440" cy = "130" r = "5" stroke = "#000000" stroke-width = "5" fill = "#000000" />
	<path d = "M440 130 L440 145 L440 153 " stroke = "#000000" stroke-width = "5" fill = "none" />    <line x1="440" y1="153" x2="455" y2="153" style="stroke:#000000;stroke-width:5" />
    <line x1="440" y1="153" x2="425" y2="153" style="stroke:#000000;stroke-width:5" />
    <line x1="440" y1="168" x2="425" y2="168" style="stroke:#000000;stroke-width:5" />
    <line x1="440" y1="168" x2="455" y2="168" style="stroke:#000000;stroke-width:5" />
	<path d = "M440 168 L440 175 L440 190 " stroke = "#000000" stroke-width = "5" fill = "none" />    <line x1="440" y1="221" x2="440" y2="190" style="stroke:#000000;stroke-width:5" />
	<path d = "M440 221 L455 221 L440 236 L425 221 L440 221 Z" stroke = "#000000" stroke-width = "5" fill = "none" />	<path d = "M137 130 L137 145 L137 153 " stroke = "#000000" stroke-width = "5" fill = "none" />    <line x1="137" y1="153" x2="152" y2="153" style="stroke:#000000;stroke-width:5" />
    <line x1="137" y1="153" x2="122" y2="153" style="stroke:#000000;stroke-width:5" />
    <line x1="137" y1="168" x2="122" y2="168" style="stroke:#000000;stroke-width:5" />
    <line x1="137" y1="168" x2="152" y2="168" style="stroke:#000000;stroke-width:5" />
	<path d = "M137 168 L137 175 L137 190 " stroke = "#000000" stroke-width = "5" fill = "none" />    <line x1="137" y1="221" x2="137" y2="190" style="stroke:#000000;stroke-width:5" />
	<path d = "M137 221 L152 221 L137 236 L122 221 L137 221 Z" stroke = "#000000" stroke-width = "5" fill = "none" /><circle cx="137" cy = "130" r = "5" stroke = "#000000" stroke-width = "5" fill = "#000000" />
    <line x1="137" y1="130" x2="77" y2="130" style="stroke:#000000;stroke-width:5" />
    <line x1="440" y1="130" x2="500" y2="130" style="stroke:#000000;stroke-width:5" />
    <line x1="77" y1="130" x2="46" y2="130" style="stroke:#000000;stroke-width:5" />
<circle cx="39" cy = "130" r = "7.562500000000003" stroke = "#000000" stroke-width = "5" fill = "none" />
    <line x1="500" y1="130" x2="530" y2="130" style="stroke:#000000;stroke-width:5" />
<circle cx="538" cy = "130" r = "7.562500000000003" stroke = "#000000" stroke-width = "5" fill = "none" />
</svg>