<svg width="400" height="700" viewbox = "0 0 400 700"  xmlns="http://www.w3.org/2000/svg">
<!--<json>{
  "glyph": "0330,0336,0331,0234,0234,0234,0234,0234,0234,0336,0333,0334,0337,0342,0335,0331,0331,0331,0331,0331,0331,0334,0342,0335,0334,0334,0336,0333,0337,0234,0234,0234,0234,0234,0234,0335,0336,0331,0337,0342,0336,0330,0334,0337,0234,0234,0234,0234,0234,0234,0335,0336,0331,0337,0342,0336,0330,0334,0337,0234,0234,0234,0234,0335,0336,0331,0337,0342,0336,0330,0334,0337,0234,0234,0335,0336,0331,0337,0342,0335,0336,0330,0337,0321,0333,0233,0330,0330,0233,0330,0330,0233,0330,0330,0233,0330,0330,0233,0330,0330,0233,0330,0330,0233,0330,0330,0233,0330,0330,0233,0330,0330,0233,0330,0330,0233,0330,0330,0233,0330,0332,0332,0334,0342,0332,0342,0332,0342,0332,0342,0332,0342,0332,0342,0332,0342,0332,0342,0332,0342,0332,0342,0332,0342,0332,0342,0332,0342,0332,0342,0332,0342,0332,0342,0332,0342,0332,0342,0332,0342,0332,0342,0332,0342,0332,0342,0332,0342,0332,0342,0335,0336,0330,0332,0332,0333,0331,0333,0331,0327,0337,0362,0203,0203,0335,0203,0335,0203,0203,0335,0203,0363,0335,0330,0330,0323,0362,0203,0203,0203,0203,0335,0203,0335,0203,0203,0203,0203,0335,0203,0363,0335,0330,0330,0330,0330,0326,0362,0203,0203,0203,0203,0203,0203,0335,0203,0335,0203,0203,0203,0203,0203,0203,0335,0203,0363,0335,0330,0330,0330,0330,0330,0330,0325,0362,0203,0203,0203,0203,0203,0203,0335,0203,0335,0203,0203,0203,0203,0203,0203,0335,0203,0363,0335,0330,0330,0330,0330,0330,0330,0322,0362,0203,0203,0203,0203,0203,0203,0335,0203,0335,0203,0203,0203,0203,0203,0203,0335,0203,0363,0335,0330,0330,0330,0330,0330,0334,0336,0333,0337,0342,0332,0342,0332,0342,0332,0342,0332,0342,0332,0342,0325,0332,0342,0332,0342,0332,0342,0332,0342,0332,0342,0332,0342,0326,0332,0342,0332,0342,0332,0342,0332,0342,0332,0342,0332,0342,0323,0332,0342,0332,0342,0332,0342,0332,0342,0332,0327,0342,0332,0342,0335,0300,0336,0336,0333,0330,0330,0330,0330,0330,0330,0330,0330,0330,0330,0330,0330,0330,0333,0336,0331,0333,0337,0332,061,0365,0331,062,0331,0365,0331,063,0331,0365,0331,064,0331,0365,0331,0331,065,0365,0331,066,0331,0365,0331,0331,067,0365,0331,0331,070,0365,0331,0331,071,0365,0331,0331,061,060,0365,0331,0331,061,061,0365,0331,0331,061,062,0365,0331,0331,061,063,0365,0331,0331,061,064,0365,0331,0331,061,065,0365,0331,0331,061,066,0365,0331,061,067,0331,0365,0331,061,070,0331,0365,0331,061,071,0331,0365,0331,0331,062,060,0365,0331,0331,062,061,0365,0331,0331,062,062,0365,0331,0331,062,063,0365,0331,0331,062,064,0365,0332,0332,0332,0332,0332,0332,0332,0110,055,0365,0330,0330,0110,053,0365,0330,0330,0124,0126,055,0365,0330,0330,0124,0126,053,0365,0330,0330,0124,0111,055,0365,0330,0330,0124,0111,053,0365,0330,0330,0126,063,055,0365,0330,0330,0126,063,053,0365,0330,0330,0104,063,055,0365,0330,0330,0104,063,053,0365,0330,0330,0111,063,055,0365,0330,0330,0111,063,053,0365,0330,0365,0330,0126,062,055,0365,0330,0330,0126,062,053,0365,0330,0330,0104,062,055,0365,0330,0330,0104,062,053,0365,0330,0330,0111,062,055,0365,0330,0330,0111,062,053,0365,0330,0330,0126,061,055,0365,0330,0330,0126,061,053,0365,0330,0330,0104,061,055,0365,0330,0330,0104,061,053,0365,0330,0330,0111,061,055,0365,0330,0330,0111,061,053,0365,",
  "x0": 162.24873199499999,
  "y0": 218.74343499999978,
  "unit": 55.000000000000014,
  "width": 400,
  "height": 700,
  "style": {
    "color0": "black",
    "fill0": "black",
    "line0": 1,
    "color1": "black",
    "fill1": "black",
    "line1": 5,
    "color2": "red",
    "fill2": "#ff000040",
    "line2": 5,
    "color3": "#9f8767",
    "fill3": "#9f876740",
    "line3": 5,
    "color4": "yellow",
    "fill4": "yellow",
    "line4": 1,
    "color5": "green",
    "fill5": "#00ff0040",
    "line5": 5,
    "color6": "blue",
    "fill6": "#0000ff40",
    "line6": 5,
    "color7": "purple",
    "fill7": "#ff00ff40",
    "line7": 5
  },
  "shapes": [
    "0220:0336,0336,0336,0336,0336,0201,0337,0362,0203,0306,0334,0337,0203,0335,0335,0203,0203,0334,0334,0203,0203,0335,0335,0203,0203,0334,0334,0203,0203,0335,0335,0203,0203,0334,0334,0203,0335,0203,0336,0336,0203,0364,0304,0337,0337,0337,0337,0337,",
    "0221:0336,0314,0336,0313,0337,0237,0237,0237,0237,0337,0314,0337,0313,0336,",
    "0222:0336,0336,0362,0203,0336,0203,0334,0364,0337,0342,0335,0335,0342,0332,0342,0335,0335,0342,0335,0336,0362,0203,0337,0203,0335,0364,0335,0337,0337,0335,0335,",
    "0223:0336,0331,0342,0337,0304,0336,0336,0335,0310,0362,0203,0335,0350,0335,0337,0203,0335,0335,0203,0335,0335,0335,0336,0203,0354,0304,0334,0313,0337,0337,0304,0336,0330,0337,",
    "0224:0333,0330,0330,0335,0220,0220,0331,0335,0220,0220,0335,0220,0335,0335,0330,0220,0331,0340,0334,0330,0330,0340,0331,0340,0335,0336,0201,0334,0336,0331,0337,0342,0336,0333,0336,0330,0332,0337,0342,0336,0330,0332,0332,0332,0332,0332,0337,0337,0337,0331,0335,0330,0331,0331,0333,0336,0201,0337,0220,0336,0201,0334,0334,0332,0332,0201,0337,0220,0336,0201,0335,0337,0330,0330,0330,0330,0334,0342,0332,0332,0342,0332,0332,0342,0333,0342,0335,0330,0330,0330,0333,0350,0335,0333,0334,0342,0335,0335,0342,0334,0334,0340,0304,0331,0331,0335,0342,0333,0342,0333,0342,0334,0330,0330,0330,0330,0330,0336,0331,0332,0332,0331,0337,0336,0201,0332,0350,0335,0343,0334,0330,0334,0334,0337,0342,0330,0336,0342,0335,0335,0335,0335,0331,0334,0334,0337,0330,0335,0335,0201,0201,0334,0334,0331,0335,0343,0334,0331,0304,0331,0331,0332,0332,",
    "0225:0330,0330,0330,0330,0330,0330,0322,0224,0331,0331,0331,0331,0331,0325,0331,0331,0224,0331,0331,0331,0331,0331,0326,0331,0331,0224,0333,0333,0330,0330,0330,0330,0330,0330,0330,0330,0332,0332,",
    "0226:0335,0201,0334,0201,0201,0336,0201,0335,0337,0201,0201,0335,0201,0201,0201,0201,0201,0335,0201,0201,0335,0201,0201,0336,0201,0337,0330,0330,0334,0342,0332,0332,0332,0342,0332,0342,0335,0330,0330,0336,0333,0335,0366,0330,0330,0334,0331,0350,0334,0367,0335,0304,0333,0330,0335,0337,0342,0332,0332,0342,0333,0333,0333,0342,0333,0342,0334,0330,0330,0333,0333,0335,0330,0201,0334,0335,0334,0333,0336,0331,0332,0333,0337,0200,0330,0330,0200,0333,0333,0333,0331,0331,0333,0337,0337,0336,0336,0333,0336,0336,0330,0330,0332,0337,0337,0331,0337,0337,0200,0336,0330,0332,0336,0336,0330,0332,0337,0200,0331,0331,0200,0332,0332,0332,0336,0333,0330,0336,0332,0337,0337,0350,0335,0366,0333,0333,0334,0334,0367,0334,0330,0330,0335,0335,0330,0330,0335,0366,0333,0333,0334,0334,0367,0335,0304,0331,0332,0332,0330,0332,0336,0333,0337,0334,0342,0335,0331,0331,0331,0332,0330,0334,0337,0342,0333,0342,0335,0331,0332,0336,0331,0335,0332,0335,0350,0334,0350,0335,0343,0334,0350,0334,0343,0334,0334,0334,0330,0334,0334,0334,0334,0334,0334,0334,0334,0304,0336,0336,0330,0337,0337,0342,0330,0336,0342,0330,0336,0342,0337,0330,0336,0331,0337,0337,0337,0340,0335,0336,0331,0337,0334,0331,0336,0331,0331,0335,0201,0332,0350,0335,0343,0334,0330,0334,0334,0304,0336,0201,0336,0201,0330,0330,0201,0337,0201,0201,0201,0337,0337,0340,0332,0332,0332,0331,0336,",
    "0227:0325,0226,0330,0330,0330,0330,0330,0330,0330,0322,0226,0331,0331,0331,0331,0331,0331,0331,0331,0331,0331,0331,0331,0331,0331,0326,0226,0330,0330,0330,0330,0330,0330,",
    "0230:0336,0330,0337,0321,0335,0336,0342,0334,0366,0330,0330,0334,0331,0367,0335,0331,0331,0332,0337,0337,0366,0336,0330,0330,0334,0331,0336,0330,0367,0335,0331,0331,0331,0331,0332,0337,0340,0334,0342,0330,0336,0336,0336,0330,0341,0335,0333,0337,0337,0337,0331,0336,0336,0336,0332,0341,0333,0337,0337,0337,0335,0201,0336,0342,0335,0366,0335,0331,0332,0332,0367,0332,0332,0366,0333,0333,0333,0333,0334,0333,0337,0337,0367,0335,0335,0336,0336,0337,0340,0330,0340,0331,0333,0336,0332,0336,0331,0337,0322,0362,0203,0335,0203,0203,0203,0335,0203,0335,0203,0203,0203,0363,0335,0331,0331,0325,0362,0203,0335,0203,0203,0203,0335,0203,0335,0203,0203,0203,0363,0335,0331,0331,0326,0362,0203,0335,0203,0203,0203,0335,0203,0335,0203,0203,0203,0363,0335,0333,0333,0333,0336,0330,0335,0337,0337,0321,0342,0332,0342,0332,0342,0332,0342,0332,0342,0332,0342,0334,0331,0331,0336,0336,0331,0337,0322,0362,0203,0334,0203,0203,0203,0334,0203,0334,0203,0203,0203,0363,0334,0330,0330,0325,0362,0203,0334,0203,0203,0203,0334,0203,0334,0203,0203,0203,0334,0363,0330,0330,0326,0362,0203,0334,0203,0203,0203,0334,0203,0334,0203,0203,0203,0363,0334,0333,0336,0333,0333,0330,0337,0337,0331,0331,0336,0331,0337,0321,0332,0332,0332,0332,0336,0331,0336,0331,0330,0332,0336,0333,0337,0337,0331,0333,0337,0337,0362,0203,0334,0336,0203,0334,0203,0203,0334,0203,0354,0334,0333,0333,0333,0333,0330,0332,0332,0332,0336,0332,0337,0336,0336,0336,0333,0337,0337,0337,0333,0330,0330,0321,0320,0336,0330,0332,0336,0333,0331,0336,0330,0337,0122,0105,0114,0101,0131,0365,0331,0331,0122,0105,0114,0101,0131,0331,0331,0365,0331,0331,0122,0105,0114,0101,0131,0331,0331,0365,0331,0331,0331,0122,0105,0114,0101,0131,0331,0365,0331,0331,0331,0122,0105,0114,0101,0131,0331,0365,0331,0331,0331,0331,0122,0105,0114,0101,0131,0365,",
    "0231:0330,0336,0330,0336,0330,0334,0337,0337,0362,0203,0203,0203,0203,0203,0203,0203,0203,0203,0336,0203,0334,0337,0203,0203,0203,0336,0203,0337,0334,0203,0203,0203,0203,0203,0203,0203,0203,0203,0336,0203,0337,0203,0203,0203,0203,0203,0203,0203,0203,0203,0336,0203,0337,0334,0203,0203,0203,0336,0203,0337,0334,0203,0203,0203,0203,0203,0203,0203,0203,0203,0336,0203,0335,0337,0364,0331,0336,0331,0336,0331,0337,0337,",
    "0232:0335,0366,0330,0330,0335,0335,0333,0367,0332,0336,0366,0337,0330,0336,0333,0335,0335,0350,0335,0336,0336,0330,0337,0367,0336,0331,0337,0334,0334,0334,0334,0336,0330,0337,0366,0336,0331,0337,0332,0332,0332,0332,0333,0333,0335,0335,0335,0337,0367,0334,0334,0304,0331,0331,0337,0333,0333,",
    "0233:0232,0232,0232,0332,0332,0332,0332,0332,0332,",
    "0234:0336,0333,0337,0342,0332,0342,0336,0333,0330,0336,0341,0337,0330,0337,",
    "0235:0336,0366,0330,0333,0333,0336,0331,0337,0367,0335,0335,0366,0331,0333,0333,0367,0335,0335,0337,",
    "0236:0336,0201,0336,0336,0330,0341,0331,0337,0337,0331,0337,",
    "0237:0336,0366,0330,0333,0333,0336,0331,0337,0367,0335,0335,0366,0331,0333,0333,0367,0335,0335,0337,",
    "01220:0333,0200,0336,0332,0337,0220,0336,0333,0337,0331,",
    "01221:0333,0200,0336,0332,0337,0336,0336,0336,0332,0337,0337,0337,0221,0331,0336,0333,0336,0336,0333,0337,0337,0337,",
    "01222:0333,0200,0336,0332,0337,0222,0336,0333,0337,0331,",
    "01223:0333,0200,0336,0332,0337,0330,0223,0331,0336,0333,0337,",
    "01224:0333,0200,0336,0330,0332,0336,0332,0224,0333,0333,0333,0331,0331,0337,0337,",
    "01225:0333,0200,0336,0330,0332,0336,0330,0332,0337,0225,0336,0333,0330,0337,0337,0331,",
    "01226:0333,0200,0336,0330,0332,0336,0336,0336,0332,0332,0332,0332,0332,0332,0226,0332,0332,0337,0337,0337,0331,0333,0333,0337,",
    "01227:0333,0200,0336,0330,0332,0336,0336,0332,0332,0336,0336,0227,0337,0337,0337,0332,0337,0331,0333,0333,0337,",
    "01230:0333,0200,0336,0330,0332,0336,0330,0332,0337,0230,0336,0333,0330,0337,0337,0331,",
    "01231:0333,0200,0336,0330,0332,0336,0336,0336,0231,0337,0337,0337,0331,0333,0337,",
    "01232:0333,0200,0336,0330,0332,0336,0330,0332,0337,0232,0336,0333,0330,0337,0337,0331,",
    "01233:0333,0200,0336,0330,0332,0336,0331,0332,0336,0330,0332,0337,0233,0331,0336,0331,0332,0337,0337,0337,0333,",
    "01234:0333,0200,0336,0330,0332,0336,0331,0337,0234,0331,0336,0333,0331,0333,0337,0337,",
    "01235:0333,0200,0336,0330,0332,0336,0332,0330,0337,0235,0331,0336,0333,0331,0337,0337,",
    "01236:0333,0200,0336,0330,0332,0236,0331,0333,0337,",
    "01237:0333,0200,0336,0330,0332,0336,0331,0332,0332,0337,0337,0237,0331,0333,",
    "0240:0220,0336,0331,0333,0336,0321,0335,0342,0335,0335,0342,0335,0330,0330,0332,0332,0337,0337,",
    "01240:0333,0200,0336,0330,0332,0210,0240,0211,0333,0331,0337,",
    "0241:0220,0336,0321,0343,0332,0350,0335,0336,0342,0334,0334,0342,0335,0304,0337,0333,0337,",
    "01241:0333,0200,0336,0332,0330,0210,0241,0211,0333,0331,0337,",
    "0242:0220,0321,0336,0343,0333,0336,0350,0335,0342,0334,0334,0342,0335,0337,0304,0332,0337,",
    "01242:0333,0200,0336,0330,0332,0210,0242,0211,0333,0331,0337,",
    "0243:0220,0336,0331,0332,0336,0321,0343,0332,0350,0334,0336,0342,0335,0335,0342,0337,0334,0334,0335,0304,0332,0330,0330,0337,0337,0333,",
    "01243:0333,0200,0336,0330,0332,0210,0243,0211,0333,0331,0337,",
    "0244:0220,0336,0331,0333,0336,0321,0343,0333,0350,0336,0335,0342,0334,0334,0342,0335,0337,0304,0333,0330,0330,0337,0337,0332,",
    "01244:0333,0200,0336,0330,0332,0210,0244,0211,0333,0331,0337,",
    "0245:0210,0332,0332,0362,0335,0203,0203,0203,0203,0334,0203,0363,0332,0332,0331,0211,",
    "01245:0333,0200,0336,0330,0332,0336,0245,0337,0333,0331,0337,",
    "0246:0210,0332,0332,0335,0306,0336,0330,0335,0335,0335,0321,0362,0203,0335,0335,0203,0364,0331,0350,0335,0337,0366,0333,0333,0333,0333,0334,0334,0334,0334,0367,0335,0336,0342,0334,0334,0342,0330,0330,0330,0330,0335,0335,0335,0304,0337,0211,",
    "01246:0333,0200,0336,0330,0332,0336,0246,",
    "0247:0330,0332,0336,0332,0336,0221,0333,0333,0333,0222,0333,0333,0333,0223,0333,0333,0333,0225,0333,0331,0331,0331,0332,0332,0332,0332,0332,0332,0332,0332,0332,0332,0332,0332,0333,0333,0226,0331,0331,0331,0333,0333,0333,0333,0333,0333,0333,0333,0333,0333,0333,0333,0333,0330,0333,0330,0330,0333,0330,0331,0332,0332,0332,0332,0332,0332,0332,0332,0332,0332,0332,0332,0227,0333,0333,0333,0230,0333,0331,0331,0331,0331,0332,0332,0332,0330,0332,0332,0332,0332,0332,0332,0333,0333,0231,0333,0333,0333,0232,0331,0333,0330,0333,0333,0233,0333,0333,0333,0234,0330,0330,0332,0330,0332,0332,0337,0337,",
    "01247:0333,0200,0336,0330,0332,0220,0336,0247,0337,0331,0333,0337,"
  ]
}</json>-->    <line x1="176" y1="191" x2="176" y2="164" style="stroke:#000000;stroke-width:1" />
    <line x1="148" y1="191" x2="148" y2="164" style="stroke:#000000;stroke-width:1" />
<circle cx="162" cy = "177" r = "6.875000000000002" stroke = "#000000" stroke-width = "1" fill = "none" />
    <line x1="176" y1="164" x2="176" y2="136" style="stroke:#000000;stroke-width:1" />
    <line x1="148" y1="164" x2="148" y2="136" style="stroke:#000000;stroke-width:1" />
<circle cx="162" cy = "150" r = "6.875000000000002" stroke = "#000000" stroke-width = "1" fill = "none" />
    <line x1="176" y1="136" x2="176" y2="109" style="stroke:#000000;stroke-width:1" />
    <line x1="148" y1="136" x2="148" y2="109" style="stroke:#000000;stroke-width:1" />
<circle cx="162" cy = "122" r = "6.875000000000002" stroke = "#000000" stroke-width = "1" fill = "none" />
    <line x1="176" y1="109" x2="176" y2="81" style="stroke:#000000;stroke-width:1" />
    <line x1="148" y1="109" x2="148" y2="81" style="stroke:#000000;stroke-width:1" />
<circle cx="162" cy = "95" r = "6.875000000000002" stroke = "#000000" stroke-width = "1" fill = "none" />
    <line x1="176" y1="81" x2="176" y2="54" style="stroke:#000000;stroke-width:1" />
    <line x1="148" y1="81" x2="148" y2="54" style="stroke:#000000;stroke-width:1" />
<circle cx="162" cy = "67" r = "6.875000000000002" stroke = "#000000" stroke-width = "1" fill = "none" />
    <line x1="176" y1="54" x2="176" y2="26" style="stroke:#000000;stroke-width:1" />
    <line x1="148" y1="54" x2="148" y2="26" style="stroke:#000000;stroke-width:1" />
<circle cx="162" cy = "40" r = "6.875000000000002" stroke = "#000000" stroke-width = "1" fill = "none" />
    <line x1="176" y1="26" x2="148" y2="26" style="stroke:#000000;stroke-width:1" />
    <line x1="176" y1="191" x2="148" y2="191" style="stroke:#000000;stroke-width:1" />
    <line x1="148" y1="191" x2="148" y2="219" style="stroke:#000000;stroke-width:1" />
    <line x1="176" y1="191" x2="176" y2="219" style="stroke:#000000;stroke-width:1" />
<circle cx="162" cy = "205" r = "6.875000000000002" stroke = "#000000" stroke-width = "1" fill = "none" />
    <line x1="148" y1="219" x2="148" y2="246" style="stroke:#000000;stroke-width:1" />
    <line x1="176" y1="219" x2="176" y2="246" style="stroke:#000000;stroke-width:1" />
<circle cx="162" cy = "232" r = "6.875000000000002" stroke = "#000000" stroke-width = "1" fill = "none" />
    <line x1="148" y1="246" x2="148" y2="274" style="stroke:#000000;stroke-width:1" />
    <line x1="176" y1="246" x2="176" y2="274" style="stroke:#000000;stroke-width:1" />
<circle cx="162" cy = "260" r = "6.875000000000002" stroke = "#000000" stroke-width = "1" fill = "none" />
    <line x1="148" y1="274" x2="148" y2="301" style="stroke:#000000;stroke-width:1" />
    <line x1="176" y1="274" x2="176" y2="301" style="stroke:#000000;stroke-width:1" />
<circle cx="162" cy = "287" r = "6.875000000000002" stroke = "#000000" stroke-width = "1" fill = "none" />
    <line x1="148" y1="301" x2="148" y2="329" style="stroke:#000000;stroke-width:1" />
    <line x1="176" y1="301" x2="176" y2="329" style="stroke:#000000;stroke-width:1" />
<circle cx="162" cy = "315" r = "6.875000000000002" stroke = "#000000" stroke-width = "1" fill = "none" />
    <line x1="148" y1="329" x2="148" y2="356" style="stroke:#000000;stroke-width:1" />
    <line x1="176" y1="329" x2="176" y2="356" style="stroke:#000000;stroke-width:1" />
<circle cx="162" cy = "342" r = "6.875000000000002" stroke = "#000000" stroke-width = "1" fill = "none" />
    <line x1="176" y1="356" x2="148" y2="356" style="stroke:#000000;stroke-width:1" />
    <line x1="148" y1="356" x2="148" y2="384" style="stroke:#000000;stroke-width:1" />
    <line x1="176" y1="356" x2="176" y2="384" style="stroke:#000000;stroke-width:1" />
<circle cx="162" cy = "370" r = "6.875000000000002" stroke = "#000000" stroke-width = "1" fill = "none" />
    <line x1="148" y1="384" x2="148" y2="411" style="stroke:#000000;stroke-width:1" />
    <line x1="176" y1="384" x2="176" y2="411" style="stroke:#000000;stroke-width:1" />
<circle cx="162" cy = "397" r = "6.875000000000002" stroke = "#000000" stroke-width = "1" fill = "none" />
    <line x1="148" y1="411" x2="148" y2="439" style="stroke:#000000;stroke-width:1" />
    <line x1="176" y1="411" x2="176" y2="439" style="stroke:#000000;stroke-width:1" />
<circle cx="162" cy = "425" r = "6.875000000000002" stroke = "#000000" stroke-width = "1" fill = "none" />
    <line x1="148" y1="439" x2="148" y2="466" style="stroke:#000000;stroke-width:1" />
    <line x1="176" y1="439" x2="176" y2="466" style="stroke:#000000;stroke-width:1" />
<circle cx="162" cy = "452" r = "6.875000000000002" stroke = "#000000" stroke-width = "1" fill = "none" />
    <line x1="148" y1="466" x2="148" y2="494" style="stroke:#000000;stroke-width:1" />
    <line x1="176" y1="466" x2="176" y2="494" style="stroke:#000000;stroke-width:1" />
<circle cx="162" cy = "480" r = "6.875000000000002" stroke = "#000000" stroke-width = "1" fill = "none" />
    <line x1="148" y1="494" x2="148" y2="521" style="stroke:#000000;stroke-width:1" />
    <line x1="176" y1="494" x2="176" y2="521" style="stroke:#000000;stroke-width:1" />
<circle cx="162" cy = "507" r = "6.875000000000002" stroke = "#000000" stroke-width = "1" fill = "none" />
    <line x1="176" y1="521" x2="148" y2="521" style="stroke:#000000;stroke-width:1" />
    <line x1="148" y1="521" x2="148" y2="549" style="stroke:#000000;stroke-width:1" />
    <line x1="176" y1="521" x2="176" y2="549" style="stroke:#000000;stroke-width:1" />
<circle cx="162" cy = "535" r = "6.875000000000002" stroke = "#000000" stroke-width = "1" fill = "none" />
    <line x1="148" y1="549" x2="148" y2="576" style="stroke:#000000;stroke-width:1" />
    <line x1="176" y1="549" x2="176" y2="576" style="stroke:#000000;stroke-width:1" />
<circle cx="162" cy = "562" r = "6.875000000000002" stroke = "#000000" stroke-width = "1" fill = "none" />
    <line x1="148" y1="576" x2="148" y2="604" style="stroke:#000000;stroke-width:1" />
    <line x1="176" y1="576" x2="176" y2="604" style="stroke:#000000;stroke-width:1" />
<circle cx="162" cy = "590" r = "6.875000000000002" stroke = "#000000" stroke-width = "1" fill = "none" />
    <line x1="148" y1="604" x2="148" y2="631" style="stroke:#000000;stroke-width:1" />
    <line x1="176" y1="604" x2="176" y2="631" style="stroke:#000000;stroke-width:1" />
<circle cx="162" cy = "617" r = "6.875000000000002" stroke = "#000000" stroke-width = "1" fill = "none" />
    <line x1="176" y1="631" x2="148" y2="631" style="stroke:#000000;stroke-width:1" />
    <line x1="148" y1="631" x2="148" y2="659" style="stroke:#000000;stroke-width:1" />
    <line x1="176" y1="631" x2="176" y2="659" style="stroke:#000000;stroke-width:1" />
<circle cx="162" cy = "645" r = "6.875000000000002" stroke = "#000000" stroke-width = "1" fill = "none" />
    <line x1="148" y1="659" x2="148" y2="686" style="stroke:#000000;stroke-width:1" />
    <line x1="176" y1="659" x2="176" y2="686" style="stroke:#000000;stroke-width:1" />
<circle cx="162" cy = "672" r = "6.875000000000002" stroke = "#000000" stroke-width = "1" fill = "none" />
    <line x1="176" y1="686" x2="148" y2="686" style="stroke:#000000;stroke-width:1" />
<path    d = "M203,672 C231,672 231,645 258,645" fill = "none" stroke-width = "5" stroke = "#000000" /><path    d = "M258,672 C245,672 238,666 233,661" fill = "none" stroke-width = "5" stroke = "#000000" /><path    d = "M229,656 C224,651 217,645 203,645" fill = "none" stroke-width = "5" stroke = "#000000" /><path    d = "M258,672 C286,672 286,645 313,645" fill = "none" stroke-width = "5" stroke = "#000000" /><path    d = "M313,672 C300,672 293,666 288,661" fill = "none" stroke-width = "5" stroke = "#000000" /><path    d = "M284,656 C279,651 272,645 258,645" fill = "none" stroke-width = "5" stroke = "#000000" /><path    d = "M313,672 C341,672 341,645 368,645" fill = "none" stroke-width = "5" stroke = "#000000" /><path    d = "M368,672 C355,672 348,666 343,661" fill = "none" stroke-width = "5" stroke = "#000000" /><path    d = "M339,656 C334,651 327,645 313,645" fill = "none" stroke-width = "5" stroke = "#000000" /><path    d = "M203,617 C231,617 231,590 258,590" fill = "none" stroke-width = "5" stroke = "#000000" /><path    d = "M258,617 C245,617 238,611 233,606" fill = "none" stroke-width = "5" stroke = "#000000" /><path    d = "M229,601 C224,596 217,590 203,590" fill = "none" stroke-width = "5" stroke = "#000000" /><path    d = "M258,617 C286,617 286,590 313,590" fill = "none" stroke-width = "5" stroke = "#000000" /><path    d = "M313,617 C300,617 293,611 288,606" fill = "none" stroke-width = "5" stroke = "#000000" /><path    d = "M284,601 C279,596 272,590 258,590" fill = "none" stroke-width = "5" stroke = "#000000" /><path    d = "M313,617 C341,617 341,590 368,590" fill = "none" stroke-width = "5" stroke = "#000000" /><path    d = "M368,617 C355,617 348,611 343,606" fill = "none" stroke-width = "5" stroke = "#000000" /><path    d = "M339,601 C334,596 327,590 313,590" fill = "none" stroke-width = "5" stroke = "#000000" /><path    d = "M203,562 C231,562 231,535 258,535" fill = "none" stroke-width = "5" stroke = "#000000" /><path    d = "M258,562 C245,562 238,556 233,551" fill = "none" stroke-width = "5" stroke = "#000000" /><path    d = "M229,546 C224,541 217,535 203,535" fill = "none" stroke-width = "5" stroke = "#000000" /><path    d = "M258,562 C286,562 286,535 313,535" fill = "none" stroke-width = "5" stroke = "#000000" /><path    d = "M313,562 C300,562 293,556 288,551" fill = "none" stroke-width = "5" stroke = "#000000" /><path    d = "M284,546 C279,541 272,535 258,535" fill = "none" stroke-width = "5" stroke = "#000000" /><path    d = "M313,562 C341,562 341,535 368,535" fill = "none" stroke-width = "5" stroke = "#000000" /><path    d = "M368,562 C355,562 348,556 343,551" fill = "none" stroke-width = "5" stroke = "#000000" /><path    d = "M339,546 C334,541 327,535 313,535" fill = "none" stroke-width = "5" stroke = "#000000" /><path    d = "M203,507 C231,507 231,480 258,480" fill = "none" stroke-width = "5" stroke = "#000000" /><path    d = "M258,507 C245,507 238,501 233,496" fill = "none" stroke-width = "5" stroke = "#000000" /><path    d = "M229,491 C224,486 217,480 203,480" fill = "none" stroke-width = "5" stroke = "#000000" /><path    d = "M258,507 C286,507 286,480 313,480" fill = "none" stroke-width = "5" stroke = "#000000" /><path    d = "M313,507 C300,507 293,501 288,496" fill = "none" stroke-width = "5" stroke = "#000000" /><path    d = "M284,491 C279,486 272,480 258,480" fill = "none" stroke-width = "5" stroke = "#000000" /><path    d = "M313,507 C341,507 341,480 368,480" fill = "none" stroke-width = "5" stroke = "#000000" /><path    d = "M368,507 C355,507 348,501 343,496" fill = "none" stroke-width = "5" stroke = "#000000" /><path    d = "M339,491 C334,486 327,480 313,480" fill = "none" stroke-width = "5" stroke = "#000000" /><path    d = "M203,452 C231,452 231,425 258,425" fill = "none" stroke-width = "5" stroke = "#000000" /><path    d = "M258,452 C245,452 238,446 233,441" fill = "none" stroke-width = "5" stroke = "#000000" /><path    d = "M229,436 C224,431 217,425 203,425" fill = "none" stroke-width = "5" stroke = "#000000" /><path    d = "M258,452 C286,452 286,425 313,425" fill = "none" stroke-width = "5" stroke = "#000000" /><path    d = "M313,452 C300,452 293,446 288,441" fill = "none" stroke-width = "5" stroke = "#000000" /><path    d = "M284,436 C279,431 272,425 258,425" fill = "none" stroke-width = "5" stroke = "#000000" /><path    d = "M313,452 C341,452 341,425 368,425" fill = "none" stroke-width = "5" stroke = "#000000" /><path    d = "M368,452 C355,452 348,446 343,441" fill = "none" stroke-width = "5" stroke = "#000000" /><path    d = "M339,436 C334,431 327,425 313,425" fill = "none" stroke-width = "5" stroke = "#000000" /><path    d = "M203,397 C231,397 231,370 258,370" fill = "none" stroke-width = "5" stroke = "#000000" /><path    d = "M258,397 C245,397 238,391 233,386" fill = "none" stroke-width = "5" stroke = "#000000" /><path    d = "M229,381 C224,376 217,370 203,370" fill = "none" stroke-width = "5" stroke = "#000000" /><path    d = "M258,397 C286,397 286,370 313,370" fill = "none" stroke-width = "5" stroke = "#000000" /><path    d = "M313,397 C300,397 293,391 288,386" fill = "none" stroke-width = "5" stroke = "#000000" /><path    d = "M284,381 C279,376 272,370 258,370" fill = "none" stroke-width = "5" stroke = "#000000" /><path    d = "M313,397 C341,397 341,370 368,370" fill = "none" stroke-width = "5" stroke = "#000000" /><path    d = "M368,397 C355,397 348,391 343,386" fill = "none" stroke-width = "5" stroke = "#000000" /><path    d = "M339,381 C334,376 327,370 313,370" fill = "none" stroke-width = "5" stroke = "#000000" /><path    d = "M203,342 C231,342 231,315 258,315" fill = "none" stroke-width = "5" stroke = "#000000" /><path    d = "M258,342 C245,342 238,336 233,331" fill = "none" stroke-width = "5" stroke = "#000000" /><path    d = "M229,326 C224,321 217,315 203,315" fill = "none" stroke-width = "5" stroke = "#000000" /><path    d = "M258,342 C286,342 286,315 313,315" fill = "none" stroke-width = "5" stroke = "#000000" /><path    d = "M313,342 C300,342 293,336 288,331" fill = "none" stroke-width = "5" stroke = "#000000" /><path    d = "M284,326 C279,321 272,315 258,315" fill = "none" stroke-width = "5" stroke = "#000000" /><path    d = "M313,342 C341,342 341,315 368,315" fill = "none" stroke-width = "5" stroke = "#000000" /><path    d = "M368,342 C355,342 348,336 343,331" fill = "none" stroke-width = "5" stroke = "#000000" /><path    d = "M339,326 C334,321 327,315 313,315" fill = "none" stroke-width = "5" stroke = "#000000" /><path    d = "M203,287 C231,287 231,260 258,260" fill = "none" stroke-width = "5" stroke = "#000000" /><path    d = "M258,287 C245,287 238,281 233,276" fill = "none" stroke-width = "5" stroke = "#000000" /><path    d = "M229,271 C224,266 217,260 203,260" fill = "none" stroke-width = "5" stroke = "#000000" /><path    d = "M258,287 C286,287 286,260 313,260" fill = "none" stroke-width = "5" stroke = "#000000" /><path    d = "M313,287 C300,287 293,281 288,276" fill = "none" stroke-width = "5" stroke = "#000000" /><path    d = "M284,271 C279,266 272,260 258,260" fill = "none" stroke-width = "5" stroke = "#000000" /><path    d = "M313,287 C341,287 341,260 368,260" fill = "none" stroke-width = "5" stroke = "#000000" /><path    d = "M368,287 C355,287 348,281 343,276" fill = "none" stroke-width = "5" stroke = "#000000" /><path    d = "M339,271 C334,266 327,260 313,260" fill = "none" stroke-width = "5" stroke = "#000000" /><path    d = "M203,232 C231,232 231,205 258,205" fill = "none" stroke-width = "5" stroke = "#000000" /><path    d = "M258,232 C245,232 238,226 233,221" fill = "none" stroke-width = "5" stroke = "#000000" /><path    d = "M229,216 C224,211 217,205 203,205" fill = "none" stroke-width = "5" stroke = "#000000" /><path    d = "M258,232 C286,232 286,205 313,205" fill = "none" stroke-width = "5" stroke = "#000000" /><path    d = "M313,232 C300,232 293,226 288,221" fill = "none" stroke-width = "5" stroke = "#000000" /><path    d = "M284,216 C279,211 272,205 258,205" fill = "none" stroke-width = "5" stroke = "#000000" /><path    d = "M313,232 C341,232 341,205 368,205" fill = "none" stroke-width = "5" stroke = "#000000" /><path    d = "M368,232 C355,232 348,226 343,221" fill = "none" stroke-width = "5" stroke = "#000000" /><path    d = "M339,216 C334,211 327,205 313,205" fill = "none" stroke-width = "5" stroke = "#000000" /><path    d = "M203,177 C231,177 231,150 258,150" fill = "none" stroke-width = "5" stroke = "#000000" /><path    d = "M258,177 C245,177 238,171 233,166" fill = "none" stroke-width = "5" stroke = "#000000" /><path    d = "M229,161 C224,156 217,150 203,150" fill = "none" stroke-width = "5" stroke = "#000000" /><path    d = "M258,177 C286,177 286,150 313,150" fill = "none" stroke-width = "5" stroke = "#000000" /><path    d = "M313,177 C300,177 293,171 288,166" fill = "none" stroke-width = "5" stroke = "#000000" /><path    d = "M284,161 C279,156 272,150 258,150" fill = "none" stroke-width = "5" stroke = "#000000" /><path    d = "M313,177 C341,177 341,150 368,150" fill = "none" stroke-width = "5" stroke = "#000000" /><path    d = "M368,177 C355,177 348,171 343,166" fill = "none" stroke-width = "5" stroke = "#000000" /><path    d = "M339,161 C334,156 327,150 313,150" fill = "none" stroke-width = "5" stroke = "#000000" /><path    d = "M203,122 C231,122 231,95 258,95" fill = "none" stroke-width = "5" stroke = "#000000" /><path    d = "M258,122 C245,122 238,116 233,111" fill = "none" stroke-width = "5" stroke = "#000000" /><path    d = "M229,106 C224,101 217,95 203,95" fill = "none" stroke-width = "5" stroke = "#000000" /><path    d = "M258,122 C286,122 286,95 313,95" fill = "none" stroke-width = "5" stroke = "#000000" /><path    d = "M313,122 C300,122 293,116 288,111" fill = "none" stroke-width = "5" stroke = "#000000" /><path    d = "M284,106 C279,101 272,95 258,95" fill = "none" stroke-width = "5" stroke = "#000000" /><path    d = "M313,122 C341,122 341,95 368,95" fill = "none" stroke-width = "5" stroke = "#000000" /><path    d = "M368,122 C355,122 348,116 343,111" fill = "none" stroke-width = "5" stroke = "#000000" /><path    d = "M339,106 C334,101 327,95 313,95" fill = "none" stroke-width = "5" stroke = "#000000" /><path    d = "M203,67 C231,67 231,40 258,40" fill = "none" stroke-width = "5" stroke = "#000000" /><path    d = "M258,67 C245,67 238,61 233,56" fill = "none" stroke-width = "5" stroke = "#000000" /><path    d = "M229,51 C224,46 217,40 203,40" fill = "none" stroke-width = "5" stroke = "#000000" /><path    d = "M258,67 C286,67 286,40 313,40" fill = "none" stroke-width = "5" stroke = "#000000" /><path    d = "M313,67 C300,67 293,61 288,56" fill = "none" stroke-width = "5" stroke = "#000000" /><path    d = "M284,51 C279,46 272,40 258,40" fill = "none" stroke-width = "5" stroke = "#000000" /><path    d = "M313,67 C341,67 341,40 368,40" fill = "none" stroke-width = "5" stroke = "#000000" /><path    d = "M368,67 C355,67 348,61 343,56" fill = "none" stroke-width = "5" stroke = "#000000" /><path    d = "M339,51 C334,46 327,40 313,40" fill = "none" stroke-width = "5" stroke = "#000000" />    <line x1="148" y1="40" x2="121" y2="40" style="stroke:#000000;stroke-width:5" />
    <line x1="148" y1="67" x2="121" y2="67" style="stroke:#000000;stroke-width:5" />
    <line x1="148" y1="95" x2="121" y2="95" style="stroke:#000000;stroke-width:5" />
    <line x1="148" y1="122" x2="121" y2="122" style="stroke:#000000;stroke-width:5" />
    <line x1="148" y1="150" x2="121" y2="150" style="stroke:#000000;stroke-width:5" />
    <line x1="148" y1="177" x2="121" y2="177" style="stroke:#000000;stroke-width:5" />
    <line x1="148" y1="205" x2="121" y2="205" style="stroke:#000000;stroke-width:5" />
    <line x1="148" y1="232" x2="121" y2="232" style="stroke:#000000;stroke-width:5" />
    <line x1="148" y1="260" x2="121" y2="260" style="stroke:#000000;stroke-width:5" />
    <line x1="148" y1="287" x2="121" y2="287" style="stroke:#000000;stroke-width:5" />
    <line x1="148" y1="315" x2="121" y2="315" style="stroke:#000000;stroke-width:5" />
    <line x1="148" y1="342" x2="121" y2="342" style="stroke:#000000;stroke-width:5" />
    <line x1="148" y1="370" x2="121" y2="370" style="stroke:#000000;stroke-width:5" />
    <line x1="148" y1="397" x2="121" y2="397" style="stroke:#000000;stroke-width:5" />
    <line x1="148" y1="425" x2="121" y2="425" style="stroke:#000000;stroke-width:5" />
    <line x1="148" y1="452" x2="121" y2="452" style="stroke:#000000;stroke-width:5" />
    <line x1="148" y1="480" x2="121" y2="480" style="stroke:#000000;stroke-width:5" />
    <line x1="148" y1="507" x2="121" y2="507" style="stroke:#000000;stroke-width:5" />
    <line x1="148" y1="535" x2="121" y2="535" style="stroke:#000000;stroke-width:5" />
    <line x1="148" y1="562" x2="121" y2="562" style="stroke:#000000;stroke-width:5" />
    <line x1="148" y1="590" x2="121" y2="590" style="stroke:#000000;stroke-width:5" />
    <line x1="148" y1="617" x2="121" y2="617" style="stroke:#000000;stroke-width:5" />
    <line x1="148" y1="645" x2="121" y2="645" style="stroke:#000000;stroke-width:5" />
    <line x1="148" y1="672" x2="121" y2="672" style="stroke:#000000;stroke-width:5" />
	<path d = "M148 686 L148 659 L148 631 L176 631 L176 659 L176 686 L148 686 Z" stroke = "#800080" stroke-width = "5" fill = "rgba(255, 0, 255, 0.25)" />	<path d = "M148 631 L148 604 L148 576 L148 549 L148 521 L176 521 L176 549 L176 576 L176 604 L176 631 L148 631 Z" stroke = "#9f8767" stroke-width = "5" fill = "rgba(159, 135, 103, 0.25)" />	<path d = "M148 521 L148 494 L148 466 L148 439 L148 411 L148 384 L148 356 L176 356 L176 384 L176 411 L176 439 L176 466 L176 494 L176 521 L148 521 Z" stroke = "#0000ff" stroke-width = "5" fill = "rgba(0, 0, 255, 0.25)" />	<path d = "M148 356 L148 329 L148 301 L148 274 L148 246 L148 219 L148 191 L176 191 L176 219 L176 246 L176 274 L176 301 L176 329 L176 356 L148 356 Z" stroke = "#008000" stroke-width = "5" fill = "rgba(0, 255, 0, 0.25)" />	<path d = "M148 191 L148 164 L148 136 L148 109 L148 81 L148 54 L148 26 L176 26 L176 54 L176 81 L176 109 L176 136 L176 164 L176 191 L148 191 Z" stroke = "#ff0000" stroke-width = "5" fill = "rgba(255, 0, 0, 0.25)" />    <line x1="148" y1="40" x2="121" y2="40" style="stroke:#ff0000;stroke-width:5" />
    <line x1="148" y1="67" x2="121" y2="67" style="stroke:#ff0000;stroke-width:5" />
    <line x1="148" y1="95" x2="121" y2="95" style="stroke:#ff0000;stroke-width:5" />
    <line x1="148" y1="122" x2="121" y2="122" style="stroke:#ff0000;stroke-width:5" />
    <line x1="148" y1="150" x2="121" y2="150" style="stroke:#ff0000;stroke-width:5" />
    <line x1="148" y1="177" x2="121" y2="177" style="stroke:#ff0000;stroke-width:5" />
    <line x1="148" y1="205" x2="121" y2="205" style="stroke:#008000;stroke-width:5" />
    <line x1="148" y1="232" x2="121" y2="232" style="stroke:#008000;stroke-width:5" />
    <line x1="148" y1="260" x2="121" y2="260" style="stroke:#008000;stroke-width:5" />
    <line x1="148" y1="287" x2="121" y2="287" style="stroke:#008000;stroke-width:5" />
    <line x1="148" y1="315" x2="121" y2="315" style="stroke:#008000;stroke-width:5" />
    <line x1="148" y1="342" x2="121" y2="342" style="stroke:#008000;stroke-width:5" />
    <line x1="148" y1="370" x2="121" y2="370" style="stroke:#0000ff;stroke-width:5" />
    <line x1="148" y1="397" x2="121" y2="397" style="stroke:#0000ff;stroke-width:5" />
    <line x1="148" y1="425" x2="121" y2="425" style="stroke:#0000ff;stroke-width:5" />
    <line x1="148" y1="452" x2="121" y2="452" style="stroke:#0000ff;stroke-width:5" />
    <line x1="148" y1="480" x2="121" y2="480" style="stroke:#0000ff;stroke-width:5" />
    <line x1="148" y1="507" x2="121" y2="507" style="stroke:#0000ff;stroke-width:5" />
    <line x1="148" y1="535" x2="121" y2="535" style="stroke:#9f8767;stroke-width:5" />
    <line x1="148" y1="562" x2="121" y2="562" style="stroke:#9f8767;stroke-width:5" />
    <line x1="148" y1="590" x2="121" y2="590" style="stroke:#9f8767;stroke-width:5" />
    <line x1="148" y1="617" x2="121" y2="617" style="stroke:#9f8767;stroke-width:5" />
    <line x1="148" y1="645" x2="121" y2="645" style="stroke:#800080;stroke-width:5" />
    <line x1="148" y1="672" x2="121" y2="672" style="stroke:#800080;stroke-width:5" />
    <text x="183" y = "47" fill = "#000000" font-size = "13.750000000000004px" font-family = "Arial">1</text>
    <text x="183" y = "74" fill = "#000000" font-size = "13.750000000000004px" font-family = "Arial">2</text>
    <text x="183" y = "102" fill = "#000000" font-size = "13.750000000000004px" font-family = "Arial">3</text>
    <text x="183" y = "129" fill = "#000000" font-size = "13.750000000000004px" font-family = "Arial">4</text>
    <text x="183" y = "157" fill = "#000000" font-size = "13.750000000000004px" font-family = "Arial">5</text>
    <text x="183" y = "184" fill = "#000000" font-size = "13.750000000000004px" font-family = "Arial">6</text>
    <text x="183" y = "212" fill = "#000000" font-size = "13.750000000000004px" font-family = "Arial">7</text>
    <text x="183" y = "239" fill = "#000000" font-size = "13.750000000000004px" font-family = "Arial">8</text>
    <text x="183" y = "267" fill = "#000000" font-size = "13.750000000000004px" font-family = "Arial">9</text>
    <text x="183" y = "294" fill = "#000000" font-size = "13.750000000000004px" font-family = "Arial">10</text>
    <text x="183" y = "322" fill = "#000000" font-size = "13.750000000000004px" font-family = "Arial">11</text>
    <text x="183" y = "349" fill = "#000000" font-size = "13.750000000000004px" font-family = "Arial">12</text>
    <text x="183" y = "377" fill = "#000000" font-size = "13.750000000000004px" font-family = "Arial">13</text>
    <text x="183" y = "404" fill = "#000000" font-size = "13.750000000000004px" font-family = "Arial">14</text>
    <text x="183" y = "432" fill = "#000000" font-size = "13.750000000000004px" font-family = "Arial">15</text>
    <text x="183" y = "459" fill = "#000000" font-size = "13.750000000000004px" font-family = "Arial">16</text>
    <text x="183" y = "487" fill = "#000000" font-size = "13.750000000000004px" font-family = "Arial">17</text>
    <text x="183" y = "514" fill = "#000000" font-size = "13.750000000000004px" font-family = "Arial">18</text>
    <text x="183" y = "542" fill = "#000000" font-size = "13.750000000000004px" font-family = "Arial">19</text>
    <text x="183" y = "569" fill = "#000000" font-size = "13.750000000000004px" font-family = "Arial">20</text>
    <text x="183" y = "597" fill = "#000000" font-size = "13.750000000000004px" font-family = "Arial">21</text>
    <text x="183" y = "624" fill = "#000000" font-size = "13.750000000000004px" font-family = "Arial">22</text>
    <text x="183" y = "652" fill = "#000000" font-size = "13.750000000000004px" font-family = "Arial">23</text>
    <text x="183" y = "679" fill = "#000000" font-size = "13.750000000000004px" font-family = "Arial">24</text>
    <text x="87" y = "679" fill = "#000000" font-size = "13.750000000000004px" font-family = "Arial">H-</text>
    <text x="87" y = "652" fill = "#000000" font-size = "13.750000000000004px" font-family = "Arial">H+</text>
    <text x="87" y = "624" fill = "#000000" font-size = "13.750000000000004px" font-family = "Arial">TV-</text>
    <text x="87" y = "597" fill = "#000000" font-size = "13.750000000000004px" font-family = "Arial">TV+</text>
    <text x="87" y = "569" fill = "#000000" font-size = "13.750000000000004px" font-family = "Arial">TI-</text>
    <text x="87" y = "542" fill = "#000000" font-size = "13.750000000000004px" font-family = "Arial">TI+</text>
    <text x="87" y = "514" fill = "#000000" font-size = "13.750000000000004px" font-family = "Arial">V3-</text>
    <text x="87" y = "487" fill = "#000000" font-size = "13.750000000000004px" font-family = "Arial">V3+</text>
    <text x="87" y = "459" fill = "#000000" font-size = "13.750000000000004px" font-family = "Arial">D3-</text>
    <text x="87" y = "432" fill = "#000000" font-size = "13.750000000000004px" font-family = "Arial">D3+</text>
    <text x="87" y = "404" fill = "#000000" font-size = "13.750000000000004px" font-family = "Arial">I3-</text>
    <text x="87" y = "377" fill = "#000000" font-size = "13.750000000000004px" font-family = "Arial">I3+</text>
    <text x="87" y = "363" fill = "#000000" font-size = "13.750000000000004px" font-family = "Arial"></text>
    <text x="87" y = "349" fill = "#000000" font-size = "13.750000000000004px" font-family = "Arial">V2-</text>
    <text x="87" y = "322" fill = "#000000" font-size = "13.750000000000004px" font-family = "Arial">V2+</text>
    <text x="87" y = "294" fill = "#000000" font-size = "13.750000000000004px" font-family = "Arial">D2-</text>
    <text x="87" y = "267" fill = "#000000" font-size = "13.750000000000004px" font-family = "Arial">D2+</text>
    <text x="87" y = "239" fill = "#000000" font-size = "13.750000000000004px" font-family = "Arial">I2-</text>
    <text x="87" y = "212" fill = "#000000" font-size = "13.750000000000004px" font-family = "Arial">I2+</text>
    <text x="87" y = "184" fill = "#000000" font-size = "13.750000000000004px" font-family = "Arial">V1-</text>
    <text x="87" y = "157" fill = "#000000" font-size = "13.750000000000004px" font-family = "Arial">V1+</text>
    <text x="87" y = "129" fill = "#000000" font-size = "13.750000000000004px" font-family = "Arial">D1-</text>
    <text x="87" y = "102" fill = "#000000" font-size = "13.750000000000004px" font-family = "Arial">D1+</text>
    <text x="87" y = "74" fill = "#000000" font-size = "13.750000000000004px" font-family = "Arial">I1-</text>
    <text x="87" y = "47" fill = "#000000" font-size = "13.750000000000004px" font-family = "Arial">I1+</text>
</svg>